<svg width="20" height="20" viewBox="0 0 20 20" fill="none" xmlns="http://www.w3.org/2000/svg">
<path d="M10.0002 18.9666C9.09183 18.9666 8.19183 18.6999 7.4835 18.1749L3.90016 15.5C2.95016 14.7916 2.2085 13.3083 2.2085 12.1333V5.93328C2.2085 4.64995 3.15016 3.28328 4.3585 2.83328L8.51683 1.27495C9.34183 0.966618 10.6418 0.966618 11.4668 1.27495L15.6252 2.83328C16.8335 3.28328 17.7752 4.64995 17.7752 5.93328V12.125C17.7752 13.3083 17.0335 14.7833 16.0835 15.4916L12.5002 18.1666C11.8085 18.6999 10.9085 18.9666 10.0002 18.9666ZM8.9585 2.44995L4.80016 4.00828C4.09183 4.27495 3.46683 5.17495 3.46683 5.94162V12.1333C3.46683 12.925 4.02516 14.0333 4.65016 14.5L8.2335 17.175C9.19183 17.8916 10.8085 17.8916 11.7752 17.175L15.3585 14.5C15.9918 14.025 16.5418 12.925 16.5418 12.1333V5.93328C16.5418 5.17495 15.9168 4.27495 15.2085 3.99995L11.0502 2.44162C10.4835 2.24162 9.51683 2.24162 8.9585 2.44995Z" fill="#010D21"/>
</svg>
