<svg width="18" height="18" viewBox="0 0 18 18" fill="none" xmlns="http://www.w3.org/2000/svg">
<path d="M13.5417 17.9584C12.6001 17.9584 11.6084 17.7334 10.5834 17.3001C9.58342 16.8751 8.57508 16.2917 7.59175 15.5834C6.61675 14.8667 5.67508 14.0667 4.78341 13.1917C3.90008 12.3001 3.10008 11.3584 2.39175 10.3917C1.67508 9.39175 1.10008 8.39175 0.691748 7.42508C0.258415 6.39175 0.041748 5.39175 0.041748 4.45008C0.041748 3.80008 0.158415 3.18341 0.383415 2.60841C0.616748 2.01675 0.991748 1.46675 1.50008 0.991748C2.14175 0.358415 2.87508 0.041748 3.65842 0.041748C3.98342 0.041748 4.31675 0.116748 4.60008 0.250081C4.92508 0.400081 5.20008 0.625081 5.40008 0.925081L7.33342 3.65008C7.50842 3.89175 7.64175 4.12508 7.73341 4.35841C7.84175 4.60841 7.90008 4.85842 7.90008 5.10008C7.90008 5.41675 7.80841 5.72508 7.63341 6.01675C7.50841 6.24175 7.31675 6.48342 7.07508 6.72508L6.50842 7.31675C6.51675 7.34175 6.52508 7.35842 6.53341 7.37508C6.63342 7.55008 6.83341 7.85008 7.21675 8.30008C7.62508 8.76675 8.00842 9.19175 8.39175 9.58342C8.88342 10.0667 9.29175 10.4501 9.67508 10.7667C10.1501 11.1667 10.4584 11.3667 10.6417 11.4584L10.6251 11.5001L11.2334 10.9001C11.4917 10.6417 11.7417 10.4501 11.9834 10.3251C12.4417 10.0417 13.0251 9.99175 13.6084 10.2334C13.8251 10.3251 14.0584 10.4501 14.3084 10.6251L17.0751 12.5917C17.3834 12.8001 17.6084 13.0667 17.7417 13.3834C17.8667 13.7001 17.9251 13.9917 17.9251 14.2834C17.9251 14.6834 17.8334 15.0834 17.6584 15.4584C17.4834 15.8334 17.2667 16.1584 16.9917 16.4584C16.5167 16.9834 16.0001 17.3584 15.4001 17.6001C14.8251 17.8334 14.2001 17.9584 13.5417 17.9584ZM3.65842 1.29175C3.20008 1.29175 2.77508 1.49175 2.36675 1.89175C1.98341 2.25008 1.71675 2.64175 1.55008 3.06675C1.37508 3.50008 1.29175 3.95841 1.29175 4.45008C1.29175 5.22508 1.47508 6.06675 1.84175 6.93342C2.21675 7.81675 2.74175 8.73341 3.40841 9.65008C4.07508 10.5667 4.83342 11.4584 5.66675 12.3001C6.50008 13.1251 7.40008 13.8917 8.32508 14.5667C9.22508 15.2251 10.1501 15.7584 11.0667 16.1417C12.4917 16.7501 13.8251 16.8917 14.9251 16.4334C15.3501 16.2584 15.7251 15.9917 16.0667 15.6084C16.2584 15.4001 16.4084 15.1751 16.5334 14.9084C16.6334 14.7001 16.6834 14.4834 16.6834 14.2667C16.6834 14.1334 16.6584 14.0001 16.5917 13.8501C16.5667 13.8001 16.5167 13.7084 16.3584 13.6001L13.5917 11.6334C13.4251 11.5167 13.2751 11.4334 13.1334 11.3751C12.9501 11.3001 12.8751 11.2251 12.5917 11.4001C12.4251 11.4834 12.2751 11.6084 12.1084 11.7751L11.4751 12.4001C11.1501 12.7167 10.6501 12.7917 10.2667 12.6501L10.0417 12.5501C9.70008 12.3667 9.30008 12.0834 8.85841 11.7084C8.45842 11.3667 8.02508 10.9667 7.50008 10.4501C7.09175 10.0334 6.68341 9.59175 6.25842 9.10008C5.86675 8.64175 5.58342 8.25008 5.40841 7.92508L5.30841 7.67508C5.25842 7.48342 5.24175 7.37508 5.24175 7.25841C5.24175 6.95842 5.35008 6.69175 5.55841 6.48341L6.18341 5.83342C6.35008 5.66675 6.47508 5.50841 6.55841 5.36675C6.62508 5.25841 6.65008 5.16675 6.65008 5.08342C6.65008 5.01675 6.62508 4.91675 6.58342 4.81675C6.52508 4.68341 6.43341 4.53341 6.31675 4.37508L4.38341 1.64175C4.30008 1.52508 4.20008 1.44175 4.07508 1.38341C3.94175 1.32508 3.80008 1.29175 3.65842 1.29175ZM10.6251 11.5084L10.4917 12.0751L10.7167 11.4917C10.6751 11.4834 10.6417 11.4917 10.6251 11.5084Z" fill="#999EA6"/>
</svg>
