<svg width="14" height="14" viewBox="0 0 14 14" fill="none" xmlns="http://www.w3.org/2000/svg">
<path d="M8.74984 13.2709H5.24984C2.08234 13.2709 0.729004 11.9176 0.729004 8.75008V5.25008C0.729004 2.08258 2.08234 0.729248 5.24984 0.729248H6.4165C6.65567 0.729248 6.854 0.927581 6.854 1.16675C6.854 1.40591 6.65567 1.60425 6.4165 1.60425H5.24984C2.56067 1.60425 1.604 2.56091 1.604 5.25008V8.75008C1.604 11.4392 2.56067 12.3959 5.24984 12.3959H8.74984C11.439 12.3959 12.3957 11.4392 12.3957 8.75008V7.58341C12.3957 7.34425 12.594 7.14591 12.8332 7.14591C13.0723 7.14591 13.2707 7.34425 13.2707 7.58341V8.75008C13.2707 11.9176 11.9173 13.2709 8.74984 13.2709Z" fill="white"/>
<path d="M4.95828 10.3191C4.60244 10.3191 4.27578 10.1907 4.03661 9.95741C3.75078 9.67158 3.62828 9.25741 3.69244 8.81991L3.94328 7.06408C3.98994 6.72574 4.21161 6.28824 4.45078 6.04908L9.04744 1.45241C10.2083 0.291579 11.3866 0.291579 12.5474 1.45241C13.1833 2.08825 13.4691 2.73575 13.4108 3.38325C13.3583 3.90825 13.0783 4.42158 12.5474 4.94658L7.95078 9.54325C7.71161 9.78241 7.27411 10.0041 6.93578 10.0507L5.17994 10.3016C5.10411 10.3191 5.02828 10.3191 4.95828 10.3191ZM9.66578 2.07075L5.06911 6.66741C4.95828 6.77824 4.82994 7.03491 4.80661 7.18658L4.55578 8.94241C4.53244 9.11158 4.56744 9.25158 4.65494 9.33908C4.74244 9.42658 4.88244 9.46158 5.05161 9.43824L6.80744 9.18741C6.95911 9.16408 7.22161 9.03574 7.32661 8.92491L11.9233 4.32825C12.3024 3.94908 12.5008 3.61075 12.5299 3.29575C12.5649 2.91658 12.3666 2.51408 11.9233 2.06491C10.9899 1.13158 10.3483 1.39408 9.66578 2.07075Z" fill="white"/>
<path d="M11.5794 5.73416C11.5386 5.73416 11.4977 5.72833 11.4627 5.71666C9.92857 5.285 8.7094 4.06583 8.27774 2.53166C8.21357 2.29833 8.34774 2.05916 8.58107 1.98916C8.8144 1.925 9.05357 2.05916 9.11774 2.2925C9.46774 3.535 10.4536 4.52083 11.6961 4.87083C11.9294 4.935 12.0636 5.18 11.9994 5.41333C11.9469 5.61166 11.7719 5.73416 11.5794 5.73416Z" fill="white"/>
</svg>
