<svg width="20" height="20" viewBox="0 0 20 20" fill="none" xmlns="http://www.w3.org/2000/svg">
<path d="M10.0002 1.04158C14.9418 1.04158 18.9585 5.05825 18.9585 9.99992C18.9585 14.9416 14.9418 18.9583 10.0002 18.9583C5.0585 18.9583 1.04183 14.9416 1.04183 9.99992C1.04183 5.05825 5.0585 1.04158 10.0002 1.04158ZM10.0002 17.7083C14.2502 17.7083 17.7085 14.2499 17.7085 9.99992C17.7085 5.74992 14.2502 2.29158 10.0002 2.29158C5.75016 2.29158 2.29183 5.74992 2.29183 9.99992C2.29183 14.2499 5.75016 17.7083 10.0002 17.7083Z" fill="#010D21"/>
<path d="M10 8.54159C10.3417 8.54159 10.625 8.82492 10.625 9.16659L10.625 13.3333C10.625 13.6749 10.3417 13.9583 10 13.9583C9.65833 13.9583 9.375 13.6749 9.375 13.3333L9.375 9.16659C9.375 8.82492 9.65833 8.54159 10 8.54159Z" fill="#010D21"/>
<path d="M10.0002 5.83335C10.1085 5.83335 10.2168 5.85835 10.3168 5.90002C10.4168 5.94168 10.5085 6.00002 10.5918 6.07502C10.6668 6.15835 10.7252 6.24168 10.7668 6.35002C10.8085 6.45002 10.8335 6.55835 10.8335 6.66668C10.8335 6.77502 10.8085 6.88335 10.7668 6.98335C10.7252 7.08335 10.6668 7.17502 10.5918 7.25835C10.5085 7.33335 10.4168 7.39168 10.3168 7.43335C10.1168 7.51668 9.8835 7.51668 9.6835 7.43335C9.5835 7.39168 9.49183 7.33335 9.4085 7.25835C9.3335 7.17502 9.27516 7.08335 9.2335 6.98335C9.19183 6.88335 9.16683 6.77502 9.16683 6.66668C9.16683 6.55835 9.19183 6.45002 9.2335 6.35002C9.27516 6.24168 9.3335 6.15835 9.4085 6.07502C9.49183 6.00002 9.5835 5.94168 9.6835 5.90002C9.7835 5.85835 9.89183 5.83335 10.0002 5.83335Z" fill="#010D21"/>
</svg>
