<svg width="285" height="429" viewBox="0 0 285 429" fill="none" xmlns="http://www.w3.org/2000/svg">
<path d="M276.468 328.902H207.574C202.861 328.902 199.041 332.719 199.041 337.427V420.146C199.041 424.854 202.861 428.67 207.574 428.67H276.468C281.181 428.67 285.001 424.854 285.001 420.146V337.427C285.001 332.719 281.181 328.902 276.468 328.902Z" fill="#FEFEFF"/>
<mask id="mask0_36_6" style="mask-type:alpha" maskUnits="userSpaceOnUse" x="199" y="328" width="87" height="101">
<path d="M276.468 328.902H207.574C202.861 328.902 199.041 332.719 199.041 337.427V420.146C199.041 424.854 202.861 428.67 207.574 428.67H276.468C281.181 428.67 285.001 424.854 285.001 420.146V337.427C285.001 332.719 281.181 328.902 276.468 328.902Z" fill="#E4E0FC"/>
</mask>
<g mask="url(#mask0_36_6)">
<path d="M242.262 392.299L225.998 396.65L223.174 396.029C223.174 396.029 221.819 395.718 219.56 397.583C217.817 399.024 215.189 407.257 213.931 411.612C213.857 411.868 213.841 412.137 213.884 412.4C213.926 412.663 214.027 412.913 214.178 413.133C214.329 413.352 214.527 413.535 214.758 413.669C214.988 413.803 215.246 413.884 215.511 413.906L224.515 414.738C223.603 416.286 223.189 418.077 223.329 419.869C223.469 421.66 224.156 423.365 225.298 424.754L226.173 425.818L224.533 436.827L256.756 437L254.471 426.44L255.793 425.163C257.198 423.805 258.084 421.999 258.297 420.058C258.51 418.116 258.037 416.162 256.959 414.532V414.532L265.688 414.271C266.087 414.252 266.477 414.147 266.83 413.961C267.183 413.776 267.491 413.515 267.732 413.197C267.973 412.879 268.141 412.512 268.224 412.123C268.307 411.733 268.304 411.329 268.213 410.941L264.634 399.014C264.124 397.315 262.768 395.972 261.038 395.573C260.364 395.414 259.662 395.418 258.99 395.584L257.066 396.205L242.262 392.299Z" fill="#3467B8"/>
<path d="M217.842 412.872C217.826 413.286 217.842 433.997 217.842 433.997L225.249 434.825L225.345 411.629L217.842 412.872Z" fill="#FCC5B6"/>
<path d="M257.127 412.872C257.111 413.286 257.127 433.997 257.127 433.997L264.534 434.825L264.63 411.629L257.127 412.872Z" fill="#FCC5B6"/>
</g>
<path d="M241.958 360.979C245.873 360.979 249.048 357.771 249.048 353.815C249.048 349.858 245.873 346.651 241.958 346.651C238.042 346.651 234.867 349.858 234.867 353.815C234.867 357.771 238.042 360.979 241.958 360.979Z" fill="#2F4362"/>
<path d="M227.164 367.667L225.485 390.868C225.485 390.868 241.352 389.242 258.031 390.868C258.031 390.868 257.217 366.076 254.166 361.655C251.426 357.682 246.386 354.832 239.978 355.639C233.57 356.445 228.536 361.65 227.164 367.667Z" fill="#2F4362"/>
<path d="M241.854 390.987C237.065 390.987 233.05 387.408 232.551 382.693L230.552 363.812H253.156L251.156 382.693C250.656 387.408 246.641 390.987 241.854 390.987Z" fill="#FCC5B6"/>
<path d="M253.478 372.394C246.517 372.61 239.61 369.855 234.969 365.667C233.781 364.595 233.839 360.256 234.748 358.928C235.657 357.6 237.298 356.937 238.884 356.91C240.47 356.883 242.016 357.415 243.466 358.076C246.182 359.313 251.328 359.83 253.139 362.24C254.949 364.651 253.938 369.393 253.478 372.394Z" fill="#2F4362"/>
<path d="M246.604 397.269C243.781 399.15 240.267 399.227 237.378 397.471L237.046 397.269V383.946H246.604V397.269Z" fill="#FCC5B6"/>
<path d="M239.428 384.339L241.195 383.604C242.139 383.256 243.178 383.258 244.121 383.61L245.712 384.442L243.038 384.915C243.038 384.915 240.556 384.905 240.554 384.781C240.552 384.657 239.586 384.46 239.586 384.46L239.428 384.339Z" fill="#F95598"/>
<path d="M242.566 385.082C241.494 385.083 240.428 384.919 239.406 384.596C239.37 384.583 239.341 384.556 239.324 384.522C239.307 384.487 239.304 384.448 239.316 384.411C239.328 384.375 239.353 384.344 239.386 384.326C239.42 384.308 239.459 384.303 239.496 384.313C241.504 384.947 243.66 384.943 245.666 384.301C245.685 384.294 245.705 384.291 245.725 384.292C245.745 384.293 245.765 384.298 245.783 384.307C245.801 384.316 245.817 384.329 245.83 384.345C245.843 384.36 245.852 384.378 245.858 384.397C245.87 384.435 245.867 384.476 245.849 384.511C245.831 384.546 245.799 384.572 245.762 384.585C244.729 384.916 243.651 385.084 242.566 385.082V385.082Z" fill="#1A1A1A"/>
<path d="M242.393 387.125C241.777 387.126 241.164 387.042 240.571 386.876C240.552 386.87 240.534 386.861 240.518 386.849C240.503 386.837 240.49 386.822 240.48 386.805C240.471 386.788 240.464 386.769 240.462 386.749C240.46 386.73 240.461 386.71 240.467 386.691C240.472 386.672 240.481 386.654 240.493 386.639C240.505 386.624 240.52 386.611 240.537 386.601C240.555 386.591 240.573 386.585 240.593 386.583C240.613 386.58 240.632 386.582 240.651 386.587C241.847 386.921 243.113 386.905 244.299 386.539C244.336 386.53 244.374 386.536 244.407 386.554C244.44 386.573 244.465 386.603 244.476 386.639C244.488 386.675 244.485 386.714 244.468 386.748C244.452 386.782 244.423 386.809 244.388 386.823C243.742 387.023 243.07 387.126 242.393 387.125V387.125Z" fill="#1A1A1A"/>
<path d="M240.247 374.322C238.541 374.497 236.826 374.578 235.111 374.566C234.827 374.566 234.465 374.499 234.404 374.217C234.392 374.134 234.403 374.049 234.437 373.972C234.471 373.896 234.526 373.83 234.596 373.784C234.736 373.694 234.894 373.636 235.058 373.612C236.279 373.366 237.524 373.255 238.769 373.283C239.283 373.287 239.796 373.348 240.296 373.465C241.025 373.648 241.046 374.24 240.247 374.322Z" fill="#382A73"/>
<path d="M249.843 374.452C248.328 374.516 246.81 374.489 245.298 374.372C245.047 374.351 244.73 374.268 244.682 373.993C244.672 373.916 244.684 373.837 244.716 373.766C244.748 373.695 244.8 373.634 244.864 373.59C244.99 373.514 245.131 373.467 245.277 373.455C246.365 373.294 247.469 373.264 248.564 373.367C249.022 373.403 249.474 373.493 249.91 373.636C250.547 373.851 250.551 374.419 249.843 374.452Z" fill="#382A73"/>
<path d="M237.685 377.262C237.718 377.904 238.041 378.409 238.407 378.389C238.774 378.37 239.045 377.833 239.012 377.192C238.98 376.551 238.655 376.046 238.289 376.066C237.922 376.086 237.652 376.621 237.685 377.262Z" fill="#1A1A1A"/>
<path d="M246.175 377.293C246.169 377.936 246.464 378.459 246.829 378.464C247.193 378.469 247.502 377.952 247.502 377.311C247.502 376.67 247.213 376.145 246.849 376.14C246.484 376.135 246.175 376.65 246.175 377.293Z" fill="#1A1A1A"/>
<path d="M237.888 377.32C237.33 377.318 236.788 377.131 236.349 376.787C236.321 376.762 236.304 376.727 236.301 376.69C236.298 376.652 236.309 376.615 236.332 376.586C236.356 376.556 236.389 376.537 236.426 376.531C236.463 376.525 236.501 376.533 236.532 376.554C236.986 376.908 237.56 377.071 238.132 377.008C238.171 377.005 238.21 377.016 238.241 377.041C238.272 377.065 238.292 377.1 238.297 377.139C238.299 377.159 238.297 377.178 238.292 377.197C238.287 377.216 238.278 377.234 238.265 377.249C238.253 377.264 238.238 377.277 238.221 377.287C238.204 377.296 238.185 377.302 238.166 377.304C238.073 377.315 237.981 377.32 237.888 377.32V377.32Z" fill="#1A1A1A"/>
<path d="M247.373 377.341H247.26C247.241 377.34 247.222 377.335 247.204 377.327C247.186 377.319 247.17 377.307 247.157 377.293C247.144 377.278 247.133 377.261 247.127 377.243C247.12 377.224 247.117 377.205 247.118 377.185C247.119 377.166 247.123 377.147 247.132 377.129C247.14 377.111 247.151 377.095 247.166 377.082C247.18 377.069 247.197 377.059 247.216 377.052C247.234 377.046 247.253 377.043 247.273 377.044C247.796 377.065 248.311 376.911 248.736 376.606C248.752 376.593 248.77 376.584 248.789 376.578C248.809 376.572 248.829 376.571 248.85 376.574C248.87 376.576 248.889 376.583 248.907 376.593C248.924 376.604 248.939 376.618 248.951 376.634C248.963 376.651 248.971 376.669 248.976 376.689C248.98 376.709 248.98 376.73 248.977 376.749C248.973 376.769 248.965 376.788 248.953 376.805C248.942 376.822 248.927 376.836 248.91 376.847C248.462 377.168 247.924 377.341 247.373 377.341V377.341Z" fill="#1A1A1A"/>
<path d="M237.999 362.387C237.999 362.387 237.896 367.975 230.354 376.256L229.599 363.427L237.999 362.387Z" fill="#2F4362"/>
<path d="M242.022 391.173C240.299 391.167 238.606 390.724 237.1 389.887C237.068 389.867 237.045 389.835 237.037 389.798C237.028 389.762 237.035 389.723 237.055 389.691C237.075 389.659 237.107 389.636 237.144 389.628C237.18 389.619 237.219 389.626 237.251 389.646C237.296 389.674 241.787 392.421 246.532 389.657C246.548 389.648 246.566 389.642 246.585 389.639C246.603 389.637 246.622 389.638 246.64 389.643C246.659 389.647 246.676 389.656 246.691 389.667C246.705 389.678 246.718 389.692 246.728 389.708C246.737 389.725 246.743 389.742 246.746 389.761C246.748 389.78 246.747 389.798 246.742 389.817C246.738 389.835 246.729 389.852 246.718 389.867C246.707 389.881 246.693 389.894 246.677 389.904C245.267 390.736 243.659 391.174 242.022 391.173V391.173Z" fill="#1A1A1A"/>
<path d="M255.299 376.643C255.395 377.637 255.25 378.673 254.759 379.543C254.269 380.414 253.413 381.099 252.423 381.26C251.852 381.356 251.22 381.254 250.788 380.866C250.356 380.478 250.197 379.87 250.164 379.292C250.086 377.922 250.792 375.832 251.974 374.985C253.563 373.853 255.126 374.866 255.299 376.643Z" fill="#FCC5B6"/>
<path d="M253.744 378.724C253.709 378.724 253.676 378.712 253.65 378.689C253.624 378.667 253.607 378.636 253.602 378.602C253.476 377.713 253.021 376.903 252.327 376.332C252.297 376.308 252.279 376.273 252.275 376.236C252.272 376.198 252.283 376.161 252.307 376.132C252.331 376.102 252.366 376.084 252.403 376.08C252.441 376.077 252.478 376.088 252.507 376.112C253.257 376.728 253.748 377.602 253.885 378.562C253.89 378.6 253.88 378.638 253.857 378.668C253.834 378.698 253.8 378.718 253.763 378.723L253.744 378.724Z" fill="#1A1A1A"/>
<path d="M228.573 376.643C228.477 377.637 228.622 378.673 229.113 379.543C229.603 380.414 230.459 381.099 231.449 381.26C232.02 381.356 232.652 381.254 233.084 380.866C233.516 380.478 233.675 379.87 233.707 379.292C233.786 377.922 233.081 375.832 231.898 374.985C230.304 373.853 228.745 374.866 228.573 376.643Z" fill="#FCC5B6"/>
<path d="M230.127 378.724H230.108C230.09 378.721 230.072 378.715 230.055 378.706C230.039 378.696 230.025 378.684 230.014 378.669C230.003 378.654 229.994 378.637 229.99 378.619C229.985 378.601 229.984 378.582 229.987 378.563C230.123 377.603 230.615 376.729 231.364 376.113C231.394 376.091 231.43 376.082 231.467 376.086C231.503 376.091 231.536 376.109 231.559 376.137C231.582 376.166 231.594 376.202 231.591 376.238C231.588 376.275 231.571 376.308 231.544 376.333C230.851 376.904 230.396 377.714 230.269 378.603C230.264 378.636 230.247 378.667 230.221 378.69C230.195 378.712 230.162 378.724 230.127 378.724V378.724Z" fill="#1A1A1A"/>
<path d="M246.891 404.847C246.779 404.847 246.553 404.757 244.026 400.102C244.01 400.068 244.007 400.028 244.019 399.992C244.031 399.956 244.057 399.925 244.09 399.907C244.124 399.889 244.163 399.884 244.2 399.894C244.237 399.904 244.269 399.928 244.289 399.96C245.12 401.491 246.466 403.9 246.872 404.458C247.81 402.952 249.676 399.099 247.802 394.548C247.793 394.529 247.788 394.509 247.787 394.489C247.786 394.468 247.789 394.448 247.796 394.428C247.803 394.409 247.815 394.392 247.829 394.377C247.843 394.362 247.861 394.351 247.88 394.343C247.899 394.335 247.919 394.331 247.94 394.332C247.96 394.332 247.981 394.337 247.999 394.345C248.018 394.354 248.035 394.366 248.048 394.382C248.062 394.397 248.073 394.415 248.079 394.434C250.032 399.177 248.036 403.179 247.087 404.679C247.061 404.72 247.045 404.746 247.038 404.759L246.997 404.837L246.901 404.847H246.891Z" fill="#FDFDFE"/>
<path d="M238.375 405.257L238.235 405.188C238.185 405.164 233.277 402.665 235.253 395.074C235.264 395.036 235.289 395.004 235.323 394.984C235.357 394.964 235.398 394.958 235.436 394.968C235.455 394.973 235.473 394.981 235.489 394.993C235.505 395.005 235.518 395.02 235.528 395.037C235.538 395.054 235.545 395.072 235.547 395.092C235.55 395.111 235.549 395.131 235.544 395.15C233.812 401.788 237.467 404.381 238.23 404.843L240.289 400.178C240.296 400.159 240.306 400.141 240.321 400.126C240.335 400.111 240.352 400.099 240.371 400.091C240.389 400.083 240.41 400.078 240.43 400.078C240.451 400.079 240.471 400.083 240.49 400.091C240.509 400.099 240.526 400.111 240.54 400.127C240.554 400.142 240.565 400.159 240.572 400.179C240.578 400.198 240.581 400.219 240.58 400.239C240.578 400.26 240.572 400.28 240.563 400.298L238.375 405.257Z" fill="#FDFDFE"/>
<path d="M230.527 426.38C230.49 426.379 230.455 426.365 230.429 426.34C230.402 426.315 230.385 426.281 230.382 426.245C230.378 426.209 230.388 426.173 230.409 426.143C230.431 426.113 230.462 426.093 230.498 426.085C237.925 424.61 245.553 424.447 253.037 425.604C253.056 425.607 253.075 425.614 253.092 425.624C253.109 425.634 253.123 425.648 253.135 425.663C253.146 425.679 253.155 425.697 253.159 425.717C253.164 425.736 253.165 425.756 253.162 425.775C253.159 425.795 253.152 425.814 253.142 425.831C253.132 425.847 253.119 425.862 253.103 425.874C253.087 425.886 253.068 425.894 253.049 425.898C253.03 425.903 253.01 425.903 252.99 425.9C245.542 424.749 237.949 424.911 230.556 426.38C230.546 426.382 230.536 426.382 230.527 426.38V426.38Z" fill="#FDFDFE"/>
<path d="M242.686 381.563C242.651 381.561 242.619 381.546 242.594 381.522C242.569 381.498 242.553 381.466 242.55 381.431C242.546 381.397 242.555 381.362 242.575 381.334C242.594 381.305 242.623 381.284 242.657 381.275C243.605 381.083 244.181 380.689 244.498 380.388C244.594 380.295 244.655 380.173 244.671 380.04C244.688 379.908 244.659 379.774 244.588 379.661C243.421 377.765 243.258 374.62 243.252 374.487C243.251 374.468 243.254 374.448 243.26 374.43C243.267 374.412 243.277 374.395 243.29 374.381C243.303 374.367 243.319 374.355 243.336 374.347C243.354 374.339 243.372 374.334 243.392 374.333C243.43 374.333 243.467 374.348 243.495 374.374C243.523 374.399 243.541 374.434 243.545 374.472C243.545 374.504 243.71 377.676 244.838 379.507C244.944 379.678 244.987 379.879 244.962 380.079C244.937 380.278 244.844 380.462 244.7 380.601C244.356 380.928 243.731 381.36 242.715 381.562C242.705 381.564 242.695 381.564 242.686 381.563V381.563Z" fill="#1A1A1A"/>
<path d="M235.845 357.051C235.815 357.051 235.787 357.041 235.763 357.024C235.739 357.007 235.722 356.983 235.712 356.955C235.705 356.938 235.702 356.919 235.702 356.901C235.703 356.882 235.707 356.863 235.715 356.846C235.722 356.829 235.733 356.814 235.747 356.801C235.76 356.788 235.776 356.778 235.794 356.772C240.006 355.145 243.939 355.127 248.173 356.717C248.205 356.732 248.23 356.759 248.243 356.791C248.257 356.824 248.258 356.86 248.246 356.893C248.234 356.927 248.21 356.954 248.179 356.971C248.147 356.987 248.111 356.992 248.077 356.983C243.912 355.42 240.043 355.437 235.9 357.037C235.883 357.046 235.864 357.05 235.845 357.051V357.051Z" fill="#2F4362"/>
<path d="M248.965 413.247C248.814 413.247 248.669 413.187 248.562 413.08C248.455 412.973 248.394 412.828 248.394 412.677V409.746C248.395 409.595 248.455 409.45 248.562 409.344C248.669 409.237 248.814 409.177 248.965 409.176V409.176C249.04 409.176 249.114 409.191 249.183 409.22C249.252 409.248 249.315 409.29 249.368 409.343C249.421 409.396 249.463 409.459 249.492 409.528C249.521 409.597 249.535 409.671 249.535 409.746V412.677C249.535 412.752 249.521 412.826 249.492 412.895C249.464 412.965 249.422 413.027 249.369 413.08C249.316 413.133 249.253 413.175 249.183 413.204C249.114 413.233 249.04 413.247 248.965 413.247V413.247Z" fill="#FFC257"/>
<path d="M254.751 411.618H243.179V418.457H254.751V411.618Z" fill="white"/>
<path d="M126.027 264.71H254.075C261.848 264.71 269.303 267.795 274.8 273.286C280.296 278.777 283.384 286.225 283.384 293.991V293.991C283.384 297.836 282.626 301.643 281.153 305.196C279.68 308.748 277.521 311.976 274.8 314.695C272.078 317.414 268.847 319.571 265.291 321.042C261.735 322.514 257.924 323.271 254.075 323.271H96.7176V293.991C96.7176 286.225 99.8055 278.777 105.302 273.286C110.798 267.795 118.253 264.71 126.026 264.71H126.027Z" fill="#3467B8"/>
<path d="M233.203 299.068H123.123C121.6 299.068 120.365 300.302 120.365 301.824C120.365 303.346 121.6 304.579 123.123 304.579H233.203C234.727 304.579 235.962 303.346 235.962 301.824C235.962 300.302 234.727 299.068 233.203 299.068Z" fill="white"/>
<path d="M255.145 284.173H123.123C121.6 284.173 120.365 285.407 120.365 286.929C120.365 288.451 121.6 289.684 123.123 289.684H255.145C256.669 289.684 257.904 288.451 257.904 286.929C257.904 285.407 256.669 284.173 255.145 284.173Z" fill="white"/>
<path d="M186.713 412.574H29.3549C21.5819 412.574 14.1273 409.49 8.63088 403.999C3.13447 398.508 0.0464957 391.061 0.0462406 383.295C0.0462406 375.529 3.13411 368.082 8.63055 362.591C14.127 357.1 21.5818 354.015 29.3549 354.015H157.403C165.176 354.015 172.631 357.1 178.127 362.591C183.624 368.082 186.712 375.529 186.712 383.295V412.575L186.713 412.574Z" fill="#FFB534"/>
<path d="M115.484 388.775H27.0338C25.5102 388.775 24.2751 390.009 24.2751 391.531C24.2751 393.053 25.5102 394.286 27.0338 394.286H115.484C117.008 394.286 118.243 393.053 118.243 391.531C118.243 390.009 117.008 388.775 115.484 388.775Z" fill="white"/>
<path d="M159.055 379.392H27.0338C26.3023 379.392 25.6008 379.101 25.0834 378.585C24.5661 378.068 24.2753 377.367 24.2751 376.637V376.637C24.2751 375.906 24.5657 375.205 25.0831 374.688C25.6004 374.171 26.3021 373.881 27.0338 373.881H159.055C159.787 373.881 160.489 374.171 161.006 374.688C161.524 375.205 161.814 375.906 161.814 376.637V376.637C161.814 377.367 161.523 378.068 161.006 378.585C160.489 379.101 159.787 379.392 159.055 379.392V379.392Z" fill="white"/>
<path d="M76.4978 245H8.43093C3.77466 245 0 248.771 0 253.423V335.149C0 339.801 3.77466 343.572 8.43093 343.572H76.4978C81.1541 343.572 84.9287 339.801 84.9287 335.149V253.423C84.9287 248.771 81.1541 245 76.4978 245Z" fill="#FEFEFF"/>
<mask id="mask1_36_6" style="mask-type:alpha" maskUnits="userSpaceOnUse" x="0" y="245" width="85" height="99">
<path d="M76.4978 245H8.43093C3.77466 245 0 248.771 0 253.423V335.149C0 339.801 3.77466 343.572 8.43093 343.572H76.4978C81.1541 343.572 84.9287 339.801 84.9287 335.149V253.423C84.9287 248.771 81.1541 245 76.4978 245Z" fill="#3467B8"/>
</mask>
<g mask="url(#mask1_36_6)">
<path d="M42.1922 303.455L18.1556 310.201C15.4324 310.965 13.0339 312.597 11.3255 314.85C9.61711 317.102 8.69251 319.85 8.69257 322.676V354.22H73.8122V322.787C73.8121 320.019 72.9249 317.324 71.2805 315.096C69.6362 312.868 67.3211 311.225 64.6743 310.407L42.1922 303.455Z" fill="#2F4362"/>
</g>
<path d="M47.9375 310.994C46.1915 312.356 44.0397 313.096 41.8242 313.096C39.6088 313.096 37.457 312.356 35.711 310.994V310.994V296.299H47.9375V310.994Z" fill="#FCC5B6"/>
<path d="M31.4594 288.177C29.5299 287.024 27.3907 285.56 27.1425 283.327C27.005 282.087 27.5022 280.821 27.2387 279.601C27.0684 278.814 26.5942 278.127 26.3239 277.369C25.7709 275.821 26.1152 274.05 26.9626 272.641C27.6109 271.563 28.5238 270.673 29.427 269.796C30.7938 268.469 32.1837 267.124 33.8642 266.226C35.3887 265.409 37.0951 264.992 38.7986 264.688C40.2626 264.431 41.7632 264.256 43.2349 264.466C44.7065 264.677 46.1628 265.31 47.1228 266.444C47.5374 266.934 47.8711 267.523 48.4261 267.846C49.263 268.333 50.3086 268.069 51.2743 268.002C52.3948 267.938 53.5134 268.158 54.5264 268.641C55.5393 269.124 56.4138 269.855 57.0687 270.765C58.6144 272.962 58.6616 275.848 58.5635 278.532C58.5038 280.152 58.4105 281.789 57.9575 283.347C56.8917 287.015 53.6665 290.018 49.893 290.633C47.9067 290.956 45.8771 290.654 43.888 290.351L35.1377 289.023C33.4063 288.76 31.5912 288.466 30.1792 287.423L29.8541 287.859" fill="#2F4362"/>
<path d="M42.1758 305.869C39.3279 305.756 36.6391 304.528 34.6907 302.449C32.7423 300.371 31.6911 297.61 31.7644 294.764L32.2261 276.824L54.3994 277.704L53.4376 295.623C53.2846 298.467 52.0173 301.136 49.9098 303.053C47.8023 304.971 45.024 305.982 42.1758 305.869Z" fill="#FCC5B6"/>
<path d="M42.6106 306.075C42.4634 306.075 42.3153 306.075 42.1681 306.066C40.0094 305.984 37.9227 305.268 36.1688 304.008C36.1261 303.978 36.0973 303.931 36.0888 303.879C36.0804 303.828 36.0929 303.774 36.1236 303.732C36.1543 303.689 36.2008 303.66 36.2528 303.652C36.3047 303.643 36.3579 303.656 36.4006 303.687C38.0712 304.883 40.0526 305.571 42.1059 305.668C44.1591 305.764 46.1965 305.265 47.9721 304.23C48.0175 304.204 48.0716 304.197 48.1225 304.21C48.1733 304.223 48.2168 304.256 48.2434 304.302C48.2699 304.347 48.2773 304.401 48.2639 304.452C48.2506 304.503 48.2176 304.546 48.1722 304.573C46.4849 305.558 44.5652 306.077 42.6106 306.075V306.075Z" fill="black"/>
<path d="M36.7152 285.083C36.3675 285.13 36.0267 285.218 35.7004 285.347C35.4118 285.474 35.2252 285.665 35.3022 285.837C35.4051 286.065 35.9168 286.179 36.3968 286.221C37.5338 286.329 38.7486 286.208 39.9048 286.047C40.4608 285.97 41.0716 285.862 41.363 285.619C41.6102 285.412 41.5362 285.152 41.2168 284.994C40.9917 284.884 40.6849 284.891 40.3704 284.881C39.1483 284.826 37.9238 284.894 36.7152 285.083V285.083Z" fill="#382A73"/>
<path d="M49.7699 285.44C50.1126 285.52 50.4436 285.643 50.7549 285.807C51.0252 285.967 51.1964 286.185 51.1021 286.359C50.9761 286.589 50.4557 286.665 49.9728 286.67C48.8292 286.682 47.6316 286.447 46.4956 286.175C45.9493 286.044 45.351 285.876 45.0855 285.598C44.8595 285.359 44.9595 285.091 45.2942 284.954C45.5299 284.858 45.8338 284.892 46.1484 284.909C47.3709 284.958 48.5848 285.136 49.7699 285.44V285.44Z" fill="#382A73"/>
<path d="M38.6759 289.409C38.7136 288.838 38.4661 288.356 38.1231 288.333C37.7802 288.311 37.4716 288.756 37.4339 289.327C37.3962 289.899 37.6437 290.38 37.9867 290.403C38.3296 290.425 38.6382 289.98 38.6759 289.409Z" fill="#1A1A1A"/>
<path d="M47.9692 289.757C47.9317 290.327 47.623 290.772 47.2796 290.75C46.9362 290.728 46.689 290.246 46.7265 289.675C46.764 289.104 47.0728 288.658 47.4162 288.681C47.7595 288.704 48.0068 289.185 47.9692 289.757Z" fill="#1A1A1A"/>
<path d="M44.8037 297.978C44.7776 297.978 44.7517 297.972 44.7277 297.962C42.7077 297.135 41.692 296.956 39.5258 297.05C39.4733 297.053 39.4219 297.034 39.3832 296.998C39.3444 296.963 39.3213 296.913 39.319 296.861C39.3167 296.808 39.3354 296.757 39.3709 296.718C39.4065 296.68 39.4559 296.657 39.5085 296.654C41.7439 296.558 42.7982 296.743 44.8787 297.596C44.9028 297.606 44.9247 297.62 44.9431 297.639C44.9615 297.657 44.9762 297.679 44.9862 297.703C44.9962 297.727 45.0014 297.753 45.0014 297.779C45.0014 297.805 44.9964 297.83 44.9864 297.855C44.9723 297.891 44.9471 297.923 44.9144 297.945C44.8818 297.967 44.8431 297.978 44.8037 297.978Z" fill="black"/>
<path d="M44.0024 289.084C44.114 289.354 44.3122 289.583 44.4949 289.816C44.9896 290.443 45.3954 291.135 45.7011 291.873C45.7826 292.035 45.822 292.216 45.8156 292.398C45.7877 292.641 45.6078 292.844 45.4174 293.01C44.8614 293.499 44.1669 293.818 43.4763 294.129C43.3041 294.207 43.0973 294.285 42.929 294.198C42.7606 294.112 42.7154 293.887 42.7135 293.698C42.7029 292.811 43.0021 291.944 43.0078 291.056C43.0155 290.327 42.8299 289.604 42.852 288.876C42.8461 288.642 42.9008 288.41 43.0107 288.204C43.0713 288.098 43.1592 288.011 43.2651 287.951C43.371 287.891 43.4911 287.86 43.6129 287.862C43.8495 287.879 44.0717 288.088 44.0178 288.311C43.9495 288.59 43.8851 288.797 44.0024 289.084Z" fill="#FCC5B6"/>
<path d="M43.3974 294.579C43.3549 294.579 43.3136 294.565 43.2794 294.54C43.2453 294.515 43.2201 294.479 43.2077 294.438C43.1954 294.398 43.1963 294.354 43.2106 294.314C43.2248 294.274 43.2515 294.24 43.2868 294.216L45.1605 292.967C45.3764 292.823 45.5288 292.601 45.5864 292.348C45.644 292.095 45.6024 291.829 45.4703 291.605L43.9486 289.036C43.8315 288.838 43.7649 288.615 43.7549 288.386C43.7448 288.156 43.7915 287.928 43.8908 287.721C43.9136 287.674 43.9542 287.637 44.0038 287.62C44.0534 287.602 44.1079 287.605 44.1554 287.628C44.2028 287.651 44.2393 287.691 44.2568 287.741C44.2743 287.79 44.2714 287.845 44.2487 287.892C44.1773 288.04 44.1438 288.204 44.151 288.368C44.1582 288.533 44.206 288.693 44.29 288.834L45.8117 291.404C45.9954 291.714 46.0531 292.083 45.9729 292.435C45.8928 292.787 45.6809 293.095 45.3808 293.296L43.5071 294.545C43.4748 294.567 43.4365 294.579 43.3974 294.579V294.579Z" fill="black"/>
<path d="M53.5838 286.044C53.6271 286.357 53.6732 286.683 53.8627 286.935C54.0522 287.187 54.4399 287.32 54.689 287.134C54.8126 287.024 54.9032 286.882 54.9506 286.724C56.0729 283.897 56.6698 280.889 56.7118 277.848C56.7291 276.509 56.6156 275.099 55.8856 273.977C54.1878 271.37 50.2595 272.782 50.9848 275.839C51.4917 277.976 52.416 279.982 52.9836 282.075C53.3308 283.354 53.3981 284.693 53.5838 286.044Z" fill="#2F4362"/>
<path d="M33.0215 287.573C32.6127 286.216 31.0083 285.412 29.627 285.73C28.2458 286.048 27.1944 287.327 26.9617 288.724C26.7289 290.122 27.2368 291.581 28.1371 292.675C28.8239 293.511 29.7723 294.174 30.8409 294.336C31.9096 294.499 33.0966 294.087 33.6881 293.183C34.3441 292.179 34.1691 290.86 33.8718 289.697C33.5342 288.365 33.0774 287.067 32.5069 285.817" fill="#FCC5B6"/>
<path d="M29.0778 290.403H29.0537C29.0303 290.4 29.0077 290.392 28.9873 290.38C28.9669 290.368 28.949 290.353 28.9347 290.334C28.9204 290.315 28.9099 290.293 28.904 290.271C28.898 290.248 28.8966 290.224 28.8998 290.2C28.9792 289.643 29.2027 289.116 29.5484 288.671C29.894 288.226 30.3498 287.879 30.8707 287.664C30.8927 287.655 30.9161 287.65 30.9397 287.651C30.9634 287.651 30.9867 287.656 31.0085 287.665C31.0302 287.674 31.0499 287.687 31.0665 287.704C31.083 287.721 31.0961 287.741 31.105 287.763C31.1138 287.785 31.1182 287.808 31.118 287.832C31.1178 287.856 31.1129 287.879 31.1037 287.901C31.0944 287.922 31.081 287.942 31.0641 287.959C31.0473 287.975 31.0273 287.988 31.0054 287.997C30.5433 288.188 30.1389 288.496 29.8323 288.891C29.5257 289.286 29.3273 289.754 29.2567 290.249C29.2506 290.292 29.2292 290.331 29.1963 290.359C29.1634 290.388 29.1213 290.403 29.0778 290.403Z" fill="black"/>
<path d="M52.7902 288.166C53.3058 286.847 54.9689 286.172 56.3203 286.599C57.6718 287.026 58.6183 288.383 58.7395 289.795C58.8607 291.207 58.2383 292.62 57.2543 293.639C56.5031 294.417 55.5066 295.003 54.4274 295.08C53.3481 295.157 52.1987 294.653 51.6802 293.703C51.1031 292.646 51.3916 291.349 51.7764 290.214C52.218 288.913 52.7766 287.654 53.4453 286.454" fill="#FCC5B6"/>
<path d="M56.5117 291.302C56.4656 291.302 56.4212 291.284 56.3878 291.252C56.3543 291.22 56.3343 291.177 56.3319 291.131C56.3008 290.632 56.1401 290.15 55.8657 289.732C55.5912 289.314 55.2125 288.975 54.7669 288.748C54.7242 288.726 54.6916 288.689 54.6765 288.644C54.6613 288.598 54.6648 288.549 54.6861 288.506C54.7074 288.464 54.7448 288.431 54.7901 288.416C54.8353 288.401 54.8848 288.404 54.9275 288.426C55.4305 288.682 55.8577 289.065 56.1671 289.537C56.4765 290.009 56.6573 290.553 56.6916 291.116C56.6932 291.14 56.69 291.164 56.6823 291.187C56.6746 291.209 56.6624 291.23 56.6466 291.248C56.6308 291.266 56.6116 291.28 56.5901 291.291C56.5686 291.301 56.5452 291.307 56.5214 291.308L56.5117 291.302Z" fill="black"/>
<path d="M39.4114 278.675C42.1046 278.812 44.7979 278.868 47.4912 278.843C49.2851 278.827 51.129 278.764 52.7816 278.056C53.5193 277.739 54.286 277.155 54.2802 276.351C54.2735 275.401 53.2327 274.841 52.3353 274.525C47.9271 272.968 43.2847 272.177 38.6091 272.184C36.9576 272.184 33.2312 271.818 31.9375 273.02C30.6871 274.18 31.3527 275.909 32.5002 276.753C34.5048 278.224 36.999 278.549 39.4114 278.675Z" fill="#2F4362"/>
<path d="M33.3716 281.193C34.3181 279.566 35.3724 277.917 35.584 276.048C35.7465 274.618 35.1473 272.891 33.7458 272.555C32.455 272.247 31.2228 273.275 30.4879 274.381C29.2544 276.252 28.7248 278.499 28.9931 280.724C29.2144 282.508 30.0377 284.822 31.5027 285.961C31.925 285.48 31.9163 284.318 32.1558 283.663C32.4694 282.795 32.9119 281.983 33.3716 281.193Z" fill="#2F4362"/>
<path d="M22.4988 344C22.3665 344 22.2396 343.992 22.1461 343.978C22.0526 343.964 22 343.944 22 343.924V334.071C22.0088 334.052 22.0653 334.034 22.1581 334.02C22.2509 334.007 22.3731 334 22.5 334C22.6269 334 22.7491 334.007 22.8419 334.02C22.9347 334.034 22.9912 334.052 23 334.071V343.924C22.9994 343.944 22.9463 343.964 22.8523 343.978C22.7584 343.992 22.6313 344 22.4988 344V344Z" fill="white"/>
<path d="M62.5 344C62.3674 344 62.2402 343.992 62.1464 343.978C62.0527 343.964 62 343.944 62 343.924V334.076C62 334.056 62.0527 334.036 62.1464 334.022C62.2402 334.008 62.3674 334 62.5 334C62.6326 334 62.7598 334.008 62.8536 334.022C62.9473 334.036 63 334.056 63 334.076V343.924C63 343.944 62.9473 343.964 62.8536 343.978C62.7598 343.992 62.6326 344 62.5 344Z" fill="white"/>
<path d="M89.2592 278.389C95.2116 272.443 95.2116 262.801 89.2592 256.855C83.3068 250.908 73.6561 250.908 67.7037 256.855C61.7513 262.801 61.7513 272.443 67.7037 278.389C73.6561 284.336 83.3068 284.336 89.2592 278.389Z" fill="#3467B8"/>
<path d="M83.3676 264.195C83.3795 264.816 83.2818 265.434 83.079 266.021C82.9003 266.525 82.6208 266.987 82.2576 267.38C81.9014 267.758 81.4699 268.058 80.9908 268.259C80.4688 268.476 79.9135 268.603 79.3488 268.634L79.2671 271.458C79.2644 271.518 79.2431 271.575 79.2062 271.622C79.1693 271.67 79.1187 271.704 79.0612 271.721C78.8477 271.792 78.623 271.822 78.3985 271.81C78.235 271.81 78.0936 271.803 77.9762 271.791C77.8804 271.785 77.7859 271.765 77.6953 271.733C77.634 271.712 77.5806 271.673 77.5424 271.621C77.5106 271.573 77.4942 271.516 77.4953 271.458L77.4251 268.212C77.4139 268.064 77.4279 267.916 77.4664 267.773C77.4962 267.668 77.5506 267.571 77.6251 267.491C77.6983 267.415 77.7918 267.362 77.8945 267.338C78.0174 267.31 78.1434 267.296 78.2696 267.298H78.5284C78.9742 267.31 79.4175 267.228 79.8298 267.058C80.1664 266.915 80.4656 266.696 80.7041 266.419C80.9312 266.145 81.0971 265.825 81.1909 265.482C81.293 265.115 81.3441 264.737 81.3428 264.357C81.3474 263.941 81.2841 263.527 81.1552 263.132C81.0387 262.775 80.8468 262.448 80.5926 262.171C80.3294 261.893 80.0064 261.679 79.648 261.544C79.2169 261.387 78.7601 261.311 78.3013 261.322C77.8995 261.315 77.4987 261.364 77.1105 261.468C76.8073 261.552 76.5111 261.66 76.2246 261.79C75.9745 261.907 75.7693 262.013 75.609 262.107C75.5022 262.181 75.3797 262.229 75.2512 262.247C75.2002 262.249 75.1497 262.236 75.105 262.212C75.0543 262.18 75.0152 262.133 74.9934 262.077C74.9566 261.992 74.9329 261.901 74.9232 261.808C74.9053 261.666 74.8973 261.523 74.8992 261.38C74.8954 261.237 74.9074 261.093 74.9347 260.952C74.9588 260.853 75.0121 260.763 75.0877 260.694C75.2263 260.58 75.3776 260.481 75.5388 260.401C75.7975 260.265 76.0683 260.154 76.3477 260.068C76.6902 259.96 77.0391 259.874 77.3924 259.809C77.7811 259.738 78.1755 259.703 78.5707 259.705C79.4043 259.705 80.1238 259.824 80.7291 260.062C81.2898 260.273 81.798 260.603 82.2191 261.029C82.6096 261.435 82.9052 261.923 83.0848 262.458C83.275 263.017 83.3706 263.604 83.3676 264.195ZM79.6605 274.59C79.6645 274.804 79.6468 275.017 79.6076 275.228C79.5811 275.379 79.5147 275.521 79.4152 275.638C79.3124 275.749 79.1783 275.827 79.0305 275.861C78.8365 275.908 78.6374 275.929 78.4379 275.925C78.2327 275.93 78.0278 275.909 77.8281 275.861C77.6811 275.825 77.5475 275.748 77.4433 275.638C77.3403 275.522 77.2711 275.38 77.2433 275.228C77.2049 275.017 77.1875 274.804 77.1913 274.59C77.1879 274.372 77.2053 274.154 77.2433 273.939C77.2677 273.786 77.3374 273.643 77.4433 273.529C77.5505 273.426 77.6834 273.353 77.8281 273.318C78.0277 273.27 78.2327 273.249 78.4379 273.254C78.6374 273.25 78.8366 273.271 79.0305 273.318C79.1799 273.348 79.3161 273.424 79.4198 273.535C79.5234 273.647 79.5892 273.788 79.6076 273.939C79.6464 274.154 79.6641 274.372 79.6605 274.59Z" fill="white"/>
<path d="M221.357 362.145C227.309 356.199 227.309 346.557 221.357 340.611C215.404 334.664 205.754 334.664 199.801 340.611C193.849 346.557 193.849 356.199 199.801 362.145C205.754 368.092 215.404 368.092 221.357 362.145Z" fill="#3467B8"/>
<path d="M219.627 353.01V350.02L217.43 349.636C217.281 349.109 217.07 348.602 216.8 348.126L218.086 346.3L215.97 344.186L214.132 345.479C213.606 345.185 213.042 344.963 212.457 344.817L212.105 342.792H209.114L208.746 344.906C208.274 345.048 207.82 345.242 207.39 345.482L205.54 344.18L203.423 346.294L204.726 348.142C204.462 348.61 204.255 349.108 204.108 349.624L201.883 350.008V352.998L204.095 353.382C204.24 353.905 204.447 354.408 204.71 354.881L203.42 356.714L205.536 358.828L207.359 357.546C207.798 357.795 208.265 357.995 208.748 358.141L209.11 360.222H212.102L212.448 358.233C213.045 358.085 213.619 357.857 214.155 357.555L215.966 358.828L218.083 356.714L216.807 354.904C217.078 354.422 217.29 353.909 217.437 353.377L219.627 353.01ZM210.769 354.459C210.19 354.459 209.623 354.287 209.142 353.965C208.66 353.644 208.284 353.186 208.062 352.652C207.841 352.117 207.783 351.528 207.896 350.96C208.009 350.392 208.288 349.871 208.698 349.461C209.108 349.052 209.63 348.773 210.198 348.661C210.767 348.548 211.356 348.606 211.891 348.828C212.427 349.049 212.884 349.425 213.206 349.906C213.528 350.388 213.699 350.954 213.699 351.533C213.699 352.309 213.39 353.052 212.84 353.601C212.291 354.15 211.546 354.458 210.769 354.459V354.459Z" fill="white"/>
<path d="M270.285 226.096H262V217.783H270.285V226.096Z" fill="#FFB534"/>
<path d="M278.569 217.783H270.285V209.47H278.569V217.783Z" fill="#3471D3"/>
<path d="M14.5 153.43C15.3284 153.43 16 154.101 16 154.93C16 155.758 15.3284 156.43 14.5 156.43C13.6716 156.43 13 155.758 13 154.93C13 154.101 13.6716 153.43 14.5 153.43Z" stroke="#95A8BD" stroke-miterlimit="10"/>
<path d="M14.5 140.873C15.3284 140.873 16 141.544 16 142.373C16 143.201 15.3284 143.873 14.5 143.873C13.6716 143.873 13 143.201 13 142.373C13 141.544 13.6716 140.873 14.5 140.873Z" stroke="#95A8BD" stroke-miterlimit="10"/>
<path d="M14.5 128.32C15.3284 128.32 16 128.991 16 129.82C16 130.648 15.3284 131.32 14.5 131.32C13.6716 131.32 13 130.648 13 129.82C13 128.991 13.6716 128.32 14.5 128.32Z" stroke="#95A8BD" stroke-miterlimit="10"/>
<path d="M14.5 115.763C15.3284 115.763 16 116.434 16 117.263C16 118.091 15.3284 118.763 14.5 118.763C13.6716 118.763 13 118.091 13 117.263C13 116.434 13.6716 115.763 14.5 115.763Z" stroke="#95A8BD" stroke-miterlimit="10"/>
<path d="M80.2884 287.565L74.6612 293.192L68.0961 286.627L73.7233 281L80.2884 287.565Z" fill="#FFB534"/>
<path d="M270.192 6.53115L263.627 13.0963L258 7.46902L264.565 0.903913L270.192 6.53115Z" fill="#CFDEF5"/>
</svg>
