<svg width="334" height="457" viewBox="0 0 334 457" fill="none" xmlns="http://www.w3.org/2000/svg">
<path d="M256.124 248.432C256.179 250.941 255.489 253.409 254.139 255.525C252.79 257.642 250.843 259.311 248.543 260.322C246.244 261.333 243.697 261.641 241.223 261.206C238.749 260.771 236.46 259.613 234.645 257.878C232.83 256.143 231.57 253.91 231.025 251.461C230.481 249.011 230.675 246.456 231.585 244.117C232.494 241.778 234.077 239.761 236.134 238.32C238.191 236.88 240.63 236.081 243.141 236.025C244.809 235.988 246.468 236.279 248.024 236.883C249.579 237.486 251 238.39 252.206 239.542C253.412 240.694 254.378 242.072 255.051 243.597C255.723 245.123 256.088 246.766 256.124 248.432Z" fill="#EEF5FF"/>
<path d="M240.742 245.325C240.503 245.045 240.165 244.87 239.799 244.837C239.432 244.803 239.068 244.914 238.782 245.146C238.501 245.354 238.268 245.62 238.101 245.926C237.933 246.232 237.834 246.571 237.81 246.919C237.761 246.569 237.637 246.234 237.446 245.936C237.256 245.638 237.003 245.384 236.705 245.192C236.407 244.974 236.035 244.881 235.668 244.931C235.302 244.982 234.969 245.172 234.741 245.463C234.488 245.862 234.394 246.342 234.48 246.807C234.529 247.277 234.706 247.724 234.992 248.1C236.015 249.316 236.603 249.525 237.933 250.379C239.212 249.464 239.626 249.239 240.614 247.972C240.878 247.583 241.032 247.129 241.059 246.659C241.123 246.19 241.01 245.715 240.742 245.325Z" fill="#D6E2F2"/>
<path d="M251.96 245.07C251.72 244.791 251.381 244.616 251.014 244.583C250.648 244.549 250.282 244.66 249.996 244.891C249.715 245.099 249.483 245.365 249.315 245.671C249.148 245.977 249.048 246.316 249.024 246.664C248.975 246.314 248.851 245.979 248.661 245.681C248.472 245.383 248.22 245.13 247.924 244.937C247.625 244.719 247.252 244.625 246.885 244.675C246.517 244.726 246.184 244.917 245.955 245.208C245.701 245.607 245.608 246.087 245.694 246.552C245.745 247.021 245.922 247.467 246.205 247.844C247.254 249.06 247.817 249.27 249.147 250.123C250.431 249.214 250.84 248.979 251.827 247.717C252.093 247.328 252.249 246.874 252.277 246.403C252.342 245.935 252.229 245.459 251.96 245.07Z" fill="#D6E2F2"/>
<path d="M247.699 251.6C247.623 252.652 247.152 253.637 246.38 254.357C245.609 255.078 244.594 255.481 243.538 255.487C242.482 255.493 241.463 255.101 240.684 254.389C239.905 253.677 239.423 252.697 239.335 251.646L247.699 251.6Z" fill="white"/>
<path d="M315.809 389.892C316.959 382.787 312.125 376.097 305.012 374.949C297.899 373.8 291.201 378.629 290.051 385.734C288.902 392.839 293.736 399.529 300.849 400.678C307.962 401.826 314.66 396.997 315.809 389.892Z" fill="#EEF5FF"/>
<path d="M297.725 384.779C298.236 384.749 298.656 385.29 298.702 386.016C298.748 386.742 298.38 387.329 297.889 387.36C297.398 387.391 296.958 386.849 296.912 386.123C296.865 385.398 297.234 384.81 297.725 384.779Z" fill="#E0E0E0"/>
<path d="M298.937 381.504C298.937 381.693 297.848 381.632 296.656 382.056C295.464 382.48 294.661 383.16 294.523 383.027C294.384 382.894 295.07 381.908 296.446 381.443C297.822 380.978 298.994 381.351 298.937 381.504Z" fill="#E0E0E0"/>
<path d="M308.371 386.808C308.232 386.926 307.532 386.174 306.411 386.057C305.291 385.939 304.447 386.517 304.334 386.374C304.278 386.312 304.416 386.062 304.79 385.806C305.291 385.484 305.888 385.344 306.481 385.408C307.074 385.472 307.627 385.737 308.048 386.159C308.36 386.486 308.437 386.762 308.371 386.808Z" fill="#E0E0E0"/>
<path d="M309.491 384.636C309.389 384.8 308.335 384.248 306.933 384.207C305.531 384.166 304.426 384.601 304.339 384.432C304.252 384.263 305.363 383.481 306.959 383.553C308.555 383.625 309.609 384.514 309.491 384.636Z" fill="#E0E0E0"/>
<path d="M308.57 388.249C308.626 388.249 308.642 389.327 307.752 390.748C307.182 391.687 306.387 392.469 305.438 393.023C304.489 393.576 303.417 393.885 302.319 393.919C301.22 393.954 300.13 393.713 299.149 393.22C298.167 392.727 297.324 391.997 296.697 391.095C295.72 389.731 295.674 388.648 295.725 388.653C295.776 388.658 296.057 389.618 297.06 390.809C297.677 391.602 298.474 392.238 299.384 392.665C300.295 393.092 301.293 393.299 302.298 393.267C303.304 393.236 304.287 392.968 305.169 392.485C306.051 392.002 306.806 391.317 307.373 390.487C308.294 389.23 308.452 388.218 308.57 388.249Z" fill="#E0E0E0"/>
<path d="M57.8582 305.594C61.2422 299.324 58.8971 291.501 52.6201 288.12C46.3431 284.74 38.5114 287.083 35.1273 293.353C31.7433 299.623 34.0885 307.446 40.3654 310.826C46.6424 314.206 54.4742 311.863 57.8582 305.594Z" fill="#EEF5FF"/>
<path d="M42.0378 296.223C42.5494 296.182 42.9688 296.734 43.0302 297.429C43.0916 298.124 42.7386 298.737 42.2475 298.778C41.7564 298.819 41.3165 298.267 41.2551 297.577C41.1937 296.887 41.5467 296.264 42.0378 296.223Z" fill="#E0E0E0"/>
<path d="M43.1735 292.958C43.1735 293.07 42.0838 292.958 40.8714 293.423C39.659 293.888 38.9019 294.639 38.8251 294.562C38.7484 294.486 39.4339 293.54 40.7486 293.075C42.0634 292.61 43.2093 292.871 43.1735 292.958Z" fill="#E0E0E0"/>
<path d="M50.2484 296.055C49.7368 296.055 49.3378 296.566 49.3071 297.301C49.2764 298.037 49.655 298.599 50.141 298.62C50.627 298.64 51.0567 298.078 51.0823 297.373C51.1078 296.668 50.7395 296.075 50.2484 296.055Z" fill="#E0E0E0"/>
<path d="M48.9797 292.84C48.9439 292.754 50.0796 292.421 51.4097 292.84C52.7397 293.26 53.4559 294.195 53.3945 294.246C53.3332 294.297 52.53 293.581 51.2971 293.193C50.0643 292.805 48.9951 292.948 48.9797 292.84Z" fill="#E0E0E0"/>
<path d="M52.8625 299.345C52.8738 299.579 52.8444 299.812 52.7755 300.035C52.6243 300.656 52.3701 301.246 52.0235 301.783C51.5164 302.593 50.8456 303.29 50.054 303.827C49.0905 304.504 47.9553 304.895 46.7789 304.957C45.6025 305.018 44.4326 304.747 43.4037 304.174C42.5619 303.723 41.8232 303.102 41.2346 302.35C40.8353 301.852 40.5223 301.291 40.3087 300.689C40.2134 300.475 40.1579 300.244 40.145 300.01C40.4794 300.789 40.9146 301.52 41.4392 302.186C42.0294 302.882 42.7508 303.455 43.5622 303.873C44.5512 304.386 45.6562 304.634 46.7698 304.593C47.876 304.516 48.9429 304.151 49.8647 303.536C50.6307 303.039 51.2899 302.394 51.8036 301.64C52.2578 300.926 52.6139 300.154 52.8625 299.345Z" fill="#E0E0E0"/>
<path d="M281.493 282.673C275.355 282.671 269.304 284.132 263.845 286.936C258.387 289.741 253.677 293.806 250.108 298.795L236.393 300.737L244.067 311.687C242.075 319.475 242.569 327.689 245.48 335.182C248.391 342.675 253.573 349.072 260.302 353.479C267.031 357.886 274.97 360.082 283.01 359.761C291.05 359.44 298.789 356.618 305.144 351.688C311.499 346.758 316.154 339.968 318.456 332.267C320.759 324.566 320.595 316.339 317.987 308.735C315.379 301.132 310.458 294.532 303.911 289.86C297.364 285.187 289.519 282.674 281.472 282.673H281.493Z" fill="#3471D3"/>
<path d="M274.408 266.649C280.061 259.209 286.025 260.261 290.164 262.05C292.225 262.988 293.959 264.519 295.144 266.447C296.328 268.375 296.91 270.612 296.814 272.873C296.738 274.063 296.487 275.315 296.968 276.404C297.745 278.151 300.037 278.647 301.321 280.042C303.117 281.953 302.718 284.978 302.114 287.523C301.51 290.067 300.851 292.99 302.385 295.147C303.756 297.114 306.375 297.64 308.524 298.688C309.959 299.373 311.233 300.353 312.262 301.564C313.292 302.775 314.054 304.189 314.499 305.714C314.919 307.247 314.952 308.86 314.595 310.409C314.238 311.958 313.502 313.395 312.453 314.59C310.355 316.879 307.199 317.891 304.13 318.341C299.639 319.003 295.058 318.662 290.716 317.341C286.374 316.02 282.379 313.753 279.021 310.703C275.662 307.653 273.024 303.896 271.295 299.704C269.567 295.511 268.792 290.988 269.026 286.46" fill="#2F4362"/>
<path d="M309.22 315.346C309.22 315.346 309.414 315.162 309.731 314.769C310.205 314.208 310.554 313.553 310.754 312.847C311.041 311.727 311.052 310.554 310.785 309.429C310.469 307.928 309.741 306.544 308.683 305.433C308.078 304.783 307.39 304.216 306.636 303.747C305.807 303.253 304.935 302.832 304.032 302.49C303.048 302.118 302.095 301.667 301.183 301.141C300.224 300.542 299.387 299.767 298.717 298.857C297.296 296.881 296.524 294.513 296.507 292.081C296.483 290.813 296.591 289.545 296.83 288.299C297.06 287.037 297.382 285.78 297.628 284.503C297.816 283.613 297.92 282.708 297.94 281.8C297.896 280.919 297.696 280.054 297.346 279.245C297.014 278.422 296.63 277.625 296.323 276.797C296.058 275.967 295.887 275.11 295.812 274.242C295.709 273.389 295.709 272.546 295.612 271.749C295.527 270.955 295.375 270.171 295.157 269.403C294.776 267.954 294.135 266.586 293.264 265.366C292.615 264.358 291.757 263.501 290.749 262.853C289.74 262.204 288.604 261.779 287.417 261.605C285.572 261.346 283.693 261.738 282.107 262.714C281.08 263.327 280.195 264.148 279.508 265.126C279.037 265.806 278.863 266.214 278.838 266.199C278.991 265.802 279.188 265.423 279.426 265.07C280.095 264.055 280.976 263.197 282.01 262.556C283.626 261.528 285.553 261.101 287.453 261.35C288.683 261.518 289.863 261.949 290.912 262.614C291.961 263.279 292.854 264.162 293.53 265.203C294.435 266.456 295.105 267.861 295.51 269.352C295.732 270.137 295.891 270.938 295.986 271.749C296.088 272.581 296.088 273.409 296.19 274.242C296.269 275.083 296.44 275.912 296.702 276.715C297.004 277.523 297.387 278.315 297.725 279.153C298.092 280.004 298.303 280.915 298.349 281.841C298.333 282.775 298.227 283.706 298.032 284.62C297.781 285.918 297.464 287.175 297.234 288.417C296.996 289.637 296.888 290.879 296.911 292.122C296.916 294.479 297.648 296.777 299.009 298.703C299.651 299.581 300.452 300.33 301.372 300.911C302.266 301.433 303.2 301.883 304.165 302.255C305.082 302.609 305.965 303.043 306.805 303.553C307.578 304.041 308.281 304.63 308.897 305.305C309.969 306.46 310.698 307.89 311.005 309.434C311.264 310.592 311.232 311.796 310.913 312.939C310.696 313.655 310.324 314.315 309.823 314.871C309.641 315.051 309.438 315.211 309.22 315.346Z" fill="#455A64"/>
<path d="M288.527 306.608C288.896 306.113 289.334 305.673 289.826 305.3C290.262 304.863 290.758 304.492 291.3 304.196C290.931 304.692 290.493 305.132 290 305.504C289.566 305.942 289.069 306.314 288.527 306.608Z" fill="#FAFAFA"/>
<path d="M286.675 302.193L269.645 304.268C269.645 304.268 255.925 306.762 253.168 317.043C251.259 324.13 247.315 337.334 245.059 344.83C244.588 346.396 244.678 348.078 245.315 349.585C245.952 351.091 247.095 352.328 248.548 353.083C249.404 353.528 250.342 353.792 251.305 353.859C252.268 353.926 253.234 353.794 254.143 353.472C255.053 353.15 255.886 352.645 256.591 351.987C257.296 351.329 257.858 350.533 258.242 349.649L265.701 332.505C265.701 332.505 268.33 338.494 268.182 341.33C268.034 344.166 262.105 354.57 262.105 354.57C274.705 361.785 287.504 360.875 297.459 356.363L296.983 329.281C296.983 329.281 301.674 353.456 311.164 351.616C319.124 350.083 313.885 334.58 311.164 328.652C307.7 321.095 303.173 310.313 300.329 307.702C292.666 300.717 286.675 302.193 286.675 302.193Z" fill="#FFB534"/>
<g opacity="0.2">
<path d="M270.929 305.632C269.836 307.203 268.527 308.611 267.041 309.817C266.121 310.73 265.045 311.472 263.864 312.009C263.273 312.268 262.628 312.379 261.984 312.332C261.34 312.285 260.718 312.081 260.171 311.739C259.122 310.987 258.713 309.347 259.526 308.351C260.038 307.692 260.954 307.451 261.777 307.247L270.065 305.203" fill="black"/>
</g>
<path d="M249.182 337.211C249.861 336.63 250.664 336.212 251.53 335.99C252.395 335.769 253.301 335.749 254.175 335.934C253.316 335.969 252.46 336.073 251.618 336.246C250.782 336.504 249.968 336.826 249.182 337.211Z" fill="#263238"/>
<path d="M251.433 334.861C251.981 334.516 252.637 334.385 253.275 334.493C253.912 334.506 254.522 334.754 254.989 335.188C254.421 334.999 253.84 334.856 253.249 334.759C252.642 334.749 252.035 334.783 251.433 334.861Z" fill="#263238"/>
<g opacity="0.2">
<path d="M254.81 336.128C254.062 335.767 253.234 335.608 252.405 335.665C251.577 335.722 250.778 335.995 250.088 336.455C249.802 336.649 249.443 336.884 249.142 336.711C248.84 336.537 248.876 336.113 249.034 335.821C249.408 335.127 250.272 334.861 251.08 334.799C252.507 334.654 253.946 334.884 255.255 335.469" fill="black"/>
</g>
<g opacity="0.2">
<path d="M282.542 324.677C281.641 326.481 279.058 327.615 277.851 329.582C276.827 331.248 276.449 333.21 275.835 335.06C274.105 340.217 270.541 344.56 265.819 347.268C266.76 345.494 267.527 343.634 268.11 341.713C268.23 340.542 268.054 339.36 267.599 338.274C268.182 336.481 270.745 334.002 271.922 332.515C273.27 330.694 274.797 329.011 276.48 327.492C278.177 325.967 280.294 324.986 282.557 324.677" fill="black"/>
</g>
<path d="M289.796 343.629C290.645 341.804 291.653 340.056 292.809 338.407C292.428 339.34 291.962 340.237 291.417 341.085C290.954 341.98 290.412 342.832 289.796 343.629Z" fill="#FAFAFA"/>
<path d="M303.628 336.409C303.661 336.896 303.649 337.385 303.593 337.871C303.546 338.77 303.449 340.006 303.506 341.371C303.603 344.115 304.667 346.143 304.559 346.174C304.475 346.073 304.407 345.959 304.36 345.837C304.197 345.517 304.054 345.188 303.93 344.851C303.519 343.737 303.286 342.567 303.24 341.381C303.204 340.203 303.26 339.024 303.408 337.855C303.439 337.368 303.512 336.884 303.628 336.409Z" fill="#263238"/>
<path d="M280.5 347.922C281.851 349.136 282.934 350.616 283.682 352.27C283.616 352.306 282.976 351.284 282.097 350.088C281.217 348.893 280.444 347.973 280.5 347.922Z" fill="#FAFAFA"/>
<path d="M289.187 349.904C289.849 350.084 290.485 350.349 291.08 350.691C291.712 350.953 292.307 351.297 292.85 351.713C292.187 351.533 291.55 351.267 290.957 350.921C290.326 350.658 289.732 350.317 289.187 349.904Z" fill="#FAFAFA"/>
<path d="M283.457 341.703C282.864 341.356 282.343 340.898 281.923 340.354C281.442 339.867 281.062 339.29 280.802 338.657C281.278 339.138 281.72 339.65 282.127 340.19C282.605 340.663 283.05 341.169 283.457 341.703Z" fill="#FAFAFA"/>
<path d="M272.883 348.704C272.837 348.642 273.605 348.024 274.449 347.171C275.293 346.317 275.902 345.541 275.983 345.587C275.263 346.886 274.202 347.966 272.914 348.709L272.883 348.704Z" fill="#FAFAFA"/>
<path d="M267.292 351.56C268.366 352.298 269.335 353.178 270.172 354.176C269.098 353.438 268.129 352.558 267.292 351.56Z" fill="#FAFAFA"/>
<path d="M277.886 331.964C278.473 331.45 279.114 331.002 279.8 330.63C280.437 330.185 281.124 329.814 281.846 329.526C280.622 330.49 279.29 331.308 277.876 331.964H277.886Z" fill="#FAFAFA"/>
<path d="M286.956 328.785C287.398 329.396 287.767 330.056 288.056 330.752C288.424 331.411 288.713 332.111 288.916 332.837C288.474 332.226 288.105 331.566 287.816 330.87C287.448 330.211 287.16 329.512 286.956 328.785Z" fill="#FAFAFA"/>
<path d="M293.177 327.436C293.423 326.77 293.749 326.137 294.149 325.551C294.475 324.92 294.879 324.333 295.351 323.803C295.107 324.469 294.78 325.103 294.379 325.689C294.054 326.32 293.65 326.907 293.177 327.436Z" fill="#FAFAFA"/>
<path d="M285.923 321.156C285.959 321.085 286.813 321.463 287.934 321.723C289.054 321.984 289.98 322.035 289.98 322.117C288.556 322.269 287.122 321.93 285.918 321.156H285.923Z" fill="#FAFAFA"/>
<path d="M290.2 314.053C290.021 313.427 289.93 312.778 289.929 312.127C289.836 311.483 289.836 310.829 289.929 310.185C290.101 310.813 290.191 311.461 290.195 312.112C290.284 312.756 290.285 313.409 290.2 314.053Z" fill="#FAFAFA"/>
<path d="M299.73 328.284C299.879 327.533 300.112 326.801 300.426 326.102C300.657 325.374 300.971 324.674 301.362 324.018C300.985 325.498 300.438 326.93 299.73 328.284Z" fill="#FAFAFA"/>
<path d="M301.101 333.471C301.555 334.007 301.892 334.632 302.089 335.305C302.367 335.95 302.503 336.647 302.488 337.349C302.411 337.349 302.222 336.46 301.838 335.392C301.454 334.324 301.035 333.496 301.101 333.471Z" fill="#FAFAFA"/>
<path d="M269.599 314.631C270.226 314.862 270.819 315.175 271.364 315.561C271.953 315.872 272.499 316.261 272.986 316.716C272.359 316.484 271.766 316.172 271.221 315.786C270.631 315.474 270.086 315.086 269.599 314.631Z" fill="#FAFAFA"/>
<path d="M264.652 323.006C264.596 322.945 265.307 322.265 266.003 321.284C266.698 320.303 267.123 319.419 267.195 319.449C267.023 320.177 266.689 320.857 266.218 321.437C265.819 322.07 265.284 322.606 264.652 323.006Z" fill="#FAFAFA"/>
<path d="M257.286 323.358C257.965 323.734 258.58 324.215 259.107 324.784C259.695 325.289 260.201 325.882 260.606 326.542C260.006 326.063 259.443 325.538 258.923 324.973C258.338 324.475 257.791 323.936 257.286 323.358Z" fill="#FAFAFA"/>
<path d="M259.056 316.194C260.187 314.853 261.452 313.631 262.831 312.546C262.3 313.247 261.699 313.89 261.035 314.467C260.434 315.107 259.771 315.686 259.056 316.194Z" fill="#FAFAFA"/>
<path d="M254.498 329.807C254.152 329.144 253.886 328.443 253.705 327.717C253.436 327.018 253.254 326.289 253.162 325.546C253.509 326.208 253.776 326.91 253.955 327.635C254.221 328.335 254.403 329.064 254.498 329.807Z" fill="#FAFAFA"/>
<path d="M258.022 334.181C257.963 333.382 257.992 332.578 258.109 331.785C258.141 330.982 258.259 330.186 258.462 329.409C258.525 330.208 258.496 331.012 258.375 331.805C258.344 332.608 258.225 333.404 258.022 334.181Z" fill="#FAFAFA"/>
<path d="M283.503 314.053C282.98 313.681 282.387 313.416 281.761 313.273C281.134 313.13 280.485 313.112 279.851 313.22C279.218 313.329 278.612 313.561 278.068 313.904C277.525 314.247 277.054 314.693 276.684 315.218L272.234 321.534L248.108 340.763C247.364 341.362 246.752 342.108 246.31 342.955C245.869 343.802 245.609 344.731 245.545 345.684C245.481 346.637 245.616 347.592 245.941 348.49C246.265 349.388 246.773 350.209 247.431 350.902C248.09 351.594 248.884 352.142 249.766 352.512C250.647 352.882 251.595 353.066 252.551 353.051C253.507 353.037 254.449 352.825 255.319 352.428C256.188 352.032 256.966 351.459 257.603 350.748L277.319 328.525L279.876 326.567L282.869 324.401L283.549 317.896C283.549 317.896 285.35 318.693 286.752 319.337C288.967 320.359 289.704 318.504 289.704 318.504L283.503 314.053Z" fill="#FCC5B6"/>
<path d="M283.539 318.233C283.508 318.233 283.365 318.085 283.13 317.824C282.844 317.484 282.479 317.219 282.066 317.053C281.864 316.986 281.649 316.966 281.437 316.995C281.226 317.024 281.025 317.102 280.848 317.222C280.577 317.411 280.521 317.635 280.475 317.62C280.429 317.605 280.439 317.354 280.726 317.073C280.92 316.908 281.153 316.797 281.403 316.749C281.654 316.702 281.912 316.72 282.153 316.803C282.612 316.98 283.003 317.296 283.273 317.707C283.483 318.008 283.57 318.213 283.539 318.233Z" fill="#AA6550"/>
<path d="M280.388 319.971C280.362 319.971 280.449 319.776 280.69 319.582C281.009 319.331 281.404 319.195 281.81 319.195C282.217 319.195 282.611 319.331 282.93 319.582C283.171 319.776 283.253 319.95 283.227 319.971C283.202 319.991 283.069 319.873 282.823 319.741C282.513 319.557 282.16 319.46 281.8 319.46C281.44 319.46 281.086 319.557 280.777 319.741C280.541 319.873 280.388 319.996 280.388 319.971Z" fill="#AA6550"/>
<path d="M300.984 312.766L302.677 314.595C302.677 314.595 303.24 340.507 304.212 344.028C305.184 347.549 310.98 353.461 314.08 348.673C317.18 343.885 309.43 313.328 309.43 313.328C309.43 313.328 307.312 306.286 307.174 304.6L300.984 312.766Z" fill="#FCC5B6"/>
<path d="M304.866 297.758L304.201 315.642C304.174 316.268 303.99 316.877 303.666 317.413C303.341 317.949 302.887 318.394 302.344 318.708L296.947 321.831C296.607 322.027 296.221 322.131 295.828 322.131C295.435 322.131 295.049 322.028 294.709 321.832C294.368 321.635 294.086 321.353 293.89 321.013C293.694 320.672 293.591 320.287 293.591 319.894V303.353C293.591 302.891 293.715 302.437 293.95 302.039C294.185 301.641 294.522 301.313 294.927 301.09L303.004 296.613C303.199 296.507 303.419 296.454 303.641 296.459C303.863 296.465 304.079 296.529 304.268 296.645C304.457 296.762 304.612 296.926 304.717 297.121C304.822 297.316 304.874 297.536 304.866 297.758Z" fill="#26364E"/>
<path d="M298.661 302.479C298.558 302.691 298.519 302.928 298.551 303.162C298.583 303.395 298.683 303.613 298.839 303.79C298.995 303.966 299.2 304.092 299.428 304.153C299.655 304.213 299.896 304.204 300.119 304.128C300.342 304.051 300.537 303.911 300.68 303.724C300.823 303.536 300.907 303.311 300.922 303.076C300.937 302.841 300.881 302.607 300.763 302.404C300.645 302.2 300.469 302.036 300.257 301.933C300.116 301.864 299.964 301.823 299.807 301.813C299.651 301.803 299.494 301.825 299.346 301.875C299.197 301.926 299.061 302.006 298.943 302.109C298.826 302.213 298.73 302.339 298.661 302.479Z" fill="#FAFAFA"/>
<path d="M307.189 304.6C307.189 304.6 303.188 299.066 302.303 299.112C301.418 299.158 297.121 301.723 297.311 302.285C297.5 302.847 298.385 303.169 299.178 302.796C299.971 302.423 301.372 301.074 301.695 301.35C302.017 301.626 302.958 302.612 302.958 302.612C302.958 302.612 299.009 304.62 298.712 305.407C298.416 306.194 297.689 307.6 298.615 308.111C299.224 308.443 300.206 308.065 300.579 306.48C300.579 306.48 299.833 308.765 300.984 309.322C302.227 309.925 302.605 308.657 303.613 307.41C304.452 306.363 304.836 307.697 304.836 307.697L307.189 304.6Z" fill="#B78876"/>
<path d="M304.16 304.646C303.919 304.687 303.674 304.711 303.429 304.718C302.856 304.786 302.307 304.983 301.823 305.295C301.34 305.613 300.937 306.036 300.641 306.532C300.416 306.915 300.324 307.186 300.283 307.17C300.277 306.915 300.344 306.663 300.477 306.445C300.741 305.884 301.156 305.408 301.675 305.069C302.195 304.731 302.799 304.544 303.419 304.528C303.672 304.495 303.93 304.536 304.16 304.646Z" fill="#AA6550"/>
<path d="M270.505 268.279V270.589L270.351 305.111C270.351 309.117 273.773 312.326 278.065 312.311C282.404 312.311 285.984 309.005 286.071 304.958C286.158 300.706 286.327 296.235 286.327 296.235C286.327 296.235 291.827 295.423 293.09 288.299C293.714 284.758 293.643 278.933 293.428 274.166C293.382 273.151 293.131 272.155 292.691 271.239C292.25 270.323 291.63 269.506 290.865 268.835C290.101 268.165 289.209 267.656 288.243 267.338C287.277 267.02 286.256 266.9 285.243 266.986L270.505 268.279Z" fill="#FCC5B6"/>
<path d="M291.755 278.514C291.754 278.753 291.658 278.981 291.49 279.15C291.322 279.319 291.093 279.416 290.855 279.418C290.738 279.426 290.62 279.41 290.51 279.371C290.399 279.333 290.297 279.272 290.21 279.194C290.123 279.115 290.053 279.02 290.004 278.914C289.955 278.807 289.927 278.692 289.924 278.575C289.925 278.337 290.02 278.108 290.188 277.939C290.357 277.77 290.585 277.674 290.824 277.671C290.941 277.663 291.058 277.679 291.169 277.718C291.28 277.756 291.381 277.817 291.468 277.895C291.555 277.974 291.625 278.069 291.674 278.176C291.724 278.282 291.751 278.397 291.755 278.514Z" fill="#263238"/>
<path d="M292.118 277.175C292 277.293 291.315 276.766 290.328 276.751C289.34 276.736 288.609 277.216 288.506 277.093C288.404 276.971 288.573 276.828 288.89 276.582C289.323 276.296 289.834 276.148 290.353 276.158C290.87 276.173 291.368 276.352 291.775 276.669C292.077 276.904 292.154 277.119 292.118 277.175Z" fill="#263238"/>
<path d="M282.434 278.345C282.433 278.584 282.338 278.814 282.17 278.984C282.001 279.154 281.773 279.251 281.534 279.255C281.417 279.262 281.3 279.245 281.19 279.207C281.079 279.168 280.978 279.107 280.891 279.029C280.804 278.95 280.734 278.855 280.685 278.749C280.635 278.643 280.607 278.529 280.603 278.412C280.604 278.173 280.699 277.944 280.867 277.774C281.036 277.604 281.264 277.506 281.503 277.502C281.62 277.495 281.737 277.512 281.847 277.551C281.958 277.59 282.059 277.65 282.146 277.728C282.233 277.807 282.303 277.902 282.352 278.008C282.402 278.114 282.43 278.229 282.434 278.345Z" fill="#263238"/>
<path d="M282.434 277.185C282.317 277.303 281.631 276.777 280.644 276.761C279.656 276.746 278.925 277.226 278.823 277.104C278.72 276.981 278.889 276.838 279.211 276.593C279.643 276.303 280.155 276.155 280.674 276.169C281.19 276.181 281.687 276.361 282.091 276.68C282.373 276.915 282.47 277.134 282.434 277.185Z" fill="#263238"/>
<path d="M285.867 284.559C286.389 284.404 286.929 284.316 287.473 284.298C287.724 284.298 287.985 284.232 287.985 284.058C288.011 283.8 287.957 283.539 287.831 283.312C287.606 282.699 287.366 282.055 287.12 281.381C286.133 278.637 285.422 276.378 285.534 276.337C285.647 276.296 286.557 278.494 287.519 281.243C287.76 281.917 287.985 282.566 288.2 283.184C288.355 283.491 288.395 283.843 288.312 284.176C288.274 284.263 288.216 284.341 288.143 284.403C288.071 284.464 287.985 284.509 287.893 284.533C287.752 284.569 287.608 284.586 287.463 284.585C286.932 284.642 286.396 284.634 285.867 284.559Z" fill="#263238"/>
<path d="M286.337 296.235C282.969 296.227 279.67 295.284 276.807 293.512C276.807 293.512 279.043 298.463 286.215 297.921L286.337 296.235Z" fill="#AA6550"/>
<path d="M285.406 286.925C285.222 286.687 284.981 286.499 284.704 286.379C284.428 286.26 284.126 286.212 283.826 286.24C283.607 286.255 283.394 286.314 283.199 286.413C283.003 286.512 282.83 286.65 282.69 286.818C282.554 286.979 282.472 287.179 282.455 287.39C282.437 287.6 282.485 287.811 282.593 287.993C282.749 288.172 282.954 288.302 283.184 288.365C283.413 288.427 283.656 288.421 283.882 288.345C284.35 288.187 284.783 287.939 285.156 287.615C285.267 287.537 285.364 287.44 285.442 287.329C285.479 287.274 285.498 287.21 285.498 287.145C285.498 287.079 285.479 287.015 285.442 286.961" fill="#AA6550"/>
<path d="M282.946 285.188C283.104 285.188 283.089 286.255 283.969 287.027C284.849 287.799 286.015 287.707 286.015 287.855C286.015 287.921 285.759 288.059 285.279 288.064C284.651 288.062 284.044 287.84 283.565 287.436C283.107 287.049 282.817 286.499 282.757 285.903C282.751 285.438 282.874 285.182 282.946 285.188Z" fill="#263238"/>
<path d="M261.89 308.535C264.725 308.743 267.534 307.872 269.753 306.097C271.971 304.321 273.435 301.773 273.85 298.964C273.908 298.477 274.018 297.997 274.178 297.533C274.967 295.424 275.062 293.118 274.449 290.952C274.183 289.955 273.804 288.856 274.254 287.932C274.587 287.257 275.277 286.853 275.845 286.358C277.096 285.195 277.851 283.596 277.953 281.892C278.047 280.199 277.768 278.507 277.134 276.935C276.812 276.066 276.418 275.111 276.746 274.242C277.044 273.654 277.479 273.146 278.014 272.76C279.055 271.827 279.921 270.716 280.572 269.48C281.227 268.228 281.652 266.598 279.943 265.606C279.582 265.403 279.187 265.268 278.776 265.208C275.753 264.743 272.126 265.208 270.126 267.569C268.479 269.505 268.243 272.234 268.08 274.774C267.568 282.771 254.324 297.62 259.444 308.57L261.89 308.535Z" fill="#2F4362"/>
<path d="M282.736 273.327C282.634 273.593 281.652 273.45 280.49 273.568C279.329 273.685 278.388 273.987 278.239 273.741C278.173 273.624 278.342 273.379 278.751 273.123C279.26 272.815 279.833 272.626 280.426 272.571C281.018 272.516 281.616 272.597 282.173 272.806C282.572 272.985 282.782 273.2 282.736 273.327Z" fill="#263238"/>
<path d="M291.806 274.314C291.627 274.533 290.952 274.314 290.133 274.268C289.315 274.222 288.624 274.39 288.466 274.15C288.399 274.038 288.512 273.813 288.819 273.609C289.228 273.357 289.705 273.237 290.184 273.266C290.665 273.282 291.129 273.448 291.509 273.741C291.791 273.976 291.883 274.196 291.806 274.314Z" fill="#263238"/>
<path d="M319.103 279.255C319.103 279.457 319.043 279.655 318.931 279.823C318.818 279.991 318.659 280.122 318.472 280.199C318.285 280.276 318.079 280.297 317.88 280.257C317.682 280.218 317.5 280.121 317.357 279.978C317.214 279.835 317.116 279.653 317.077 279.454C317.037 279.256 317.057 279.051 317.135 278.864C317.212 278.677 317.343 278.518 317.512 278.405C317.68 278.293 317.878 278.233 318.08 278.233C318.351 278.233 318.612 278.341 318.804 278.532C318.995 278.724 319.103 278.984 319.103 279.255Z" fill="#455A64"/>
<path d="M322.116 280.256C322.67 280.256 323.119 279.808 323.119 279.255C323.119 278.702 322.67 278.253 322.116 278.253C321.563 278.253 321.114 278.702 321.114 279.255C321.114 279.808 321.563 280.256 322.116 280.256Z" fill="#455A64"/>
<path d="M327.119 278.754C327.225 278.929 327.275 279.131 327.264 279.334C327.254 279.538 327.183 279.733 327.06 279.896C326.937 280.059 326.768 280.181 326.576 280.247C326.383 280.314 326.174 280.321 325.977 280.268C325.78 280.215 325.604 280.105 325.47 279.951C325.336 279.797 325.252 279.607 325.227 279.404C325.203 279.202 325.239 278.997 325.332 278.816C325.425 278.634 325.57 278.485 325.748 278.386C325.98 278.258 326.253 278.225 326.508 278.294C326.764 278.363 326.983 278.528 327.119 278.754Z" fill="#455A64"/>
<path d="M322.178 267.553C322.244 267.544 322.311 267.544 322.377 267.553H322.976C323.109 267.553 323.252 267.553 323.416 267.553L323.927 267.625L324.536 267.717L325.222 267.885C326.402 268.18 327.526 268.669 328.547 269.331C330.292 270.43 331.713 271.972 332.664 273.801C333.615 275.629 334.062 277.677 333.959 279.735C333.959 280.006 333.959 280.282 333.908 280.558L333.785 281.381C333.576 282.518 333.198 283.619 332.665 284.646C332.099 285.723 331.381 286.712 330.532 287.584C329.629 288.472 328.593 289.215 327.462 289.786C326.29 290.387 325.02 290.776 323.712 290.936C323.374 290.989 323.032 291.018 322.689 291.023C322.348 291.041 322.007 291.041 321.666 291.023C320.978 290.995 320.294 290.909 319.62 290.768C318.183 290.455 316.816 289.88 315.589 289.071H315.712L311.619 290.722L311.373 290.819L311.445 290.563C311.859 289.061 312.258 287.594 312.652 286.179V286.286C311.537 284.812 310.785 283.097 310.458 281.278C310.305 280.436 310.252 279.578 310.299 278.723C310.309 278.311 310.349 277.899 310.417 277.492L310.509 276.889C310.545 276.69 310.606 276.501 310.652 276.306C311.345 273.608 312.977 271.244 315.256 269.638C316.094 269.035 317.012 268.552 317.983 268.202L318.597 267.982L319.18 267.834L319.692 267.701C319.86 267.671 320.029 267.65 320.203 267.63C320.51 267.589 320.786 267.538 321.022 267.523H321.625H322.137H322.009L321.646 267.553L321.047 267.594C320.807 267.594 320.536 267.671 320.229 267.717C318.001 268.102 315.934 269.124 314.276 270.659C312.619 272.195 311.444 274.178 310.893 276.368C310.852 276.557 310.79 276.741 310.754 276.935C310.719 277.129 310.698 277.328 310.668 277.528C310.6 277.928 310.564 278.333 310.56 278.739C310.514 279.58 310.568 280.424 310.724 281.253C311.054 283.032 311.795 284.71 312.888 286.153L312.923 286.204V286.261C312.535 287.676 312.136 289.143 311.726 290.65L311.593 290.548L315.686 288.897H315.752L315.809 288.938C317.009 289.727 318.344 290.288 319.748 290.594C320.4 290.73 321.062 290.814 321.728 290.844C322.056 290.862 322.386 290.862 322.715 290.844C323.042 290.838 323.368 290.81 323.692 290.762C324.971 290.608 326.213 290.229 327.36 289.643C328.47 289.085 329.487 288.358 330.373 287.487C331.208 286.638 331.914 285.672 332.47 284.62C332.993 283.615 333.365 282.539 333.575 281.427L333.698 280.619C333.739 280.348 333.734 280.078 333.754 279.812C333.788 279.288 333.788 278.762 333.754 278.238C333.598 276.487 333.045 274.795 332.137 273.29C331.228 271.785 329.988 270.506 328.511 269.551C327.507 268.889 326.403 268.392 325.242 268.08L324.567 267.901L323.958 267.804L323.446 267.717L323.012 267.686L322.418 267.64C322.335 267.62 322.255 267.591 322.178 267.553Z" fill="#455A64"/>
<path d="M94.0684 360.672L76.0051 363.712C68.7908 357.529 59.5388 354.236 50.0358 354.468C40.5328 354.699 31.4528 358.44 24.5494 364.968C17.6459 371.495 13.4088 380.346 12.6561 389.812C11.9035 399.277 14.6887 408.685 20.474 416.22C26.2593 423.754 34.6342 428.879 43.9815 430.607C53.3287 432.334 62.9852 430.541 71.0861 425.573C79.1871 420.605 85.1578 412.815 87.8453 403.707C90.5327 394.599 89.7463 384.82 85.6378 376.257L94.0684 360.672Z" fill="#FFB534"/>
<path d="M14.9089 352.445C14.9089 352.647 14.9689 352.845 15.0813 353.013C15.1937 353.181 15.3535 353.312 15.5404 353.389C15.7274 353.467 15.9331 353.487 16.1316 353.447C16.3301 353.408 16.5124 353.311 16.6554 353.168C16.7985 353.025 16.896 352.843 16.9355 352.644C16.9749 352.446 16.9547 352.241 16.8772 352.054C16.7998 351.867 16.6687 351.708 16.5004 351.595C16.3322 351.483 16.1343 351.423 15.932 351.423C15.6606 351.423 15.4004 351.531 15.2085 351.722C15.0166 351.914 14.9089 352.174 14.9089 352.445Z" fill="#263238"/>
<path d="M10.8982 352.445C10.8982 352.647 10.9582 352.845 11.0706 353.013C11.183 353.181 11.3428 353.312 11.5298 353.389C11.7167 353.467 11.9224 353.487 12.1209 353.447C12.3194 353.408 12.5017 353.311 12.6448 353.168C12.7879 353.025 12.8853 352.843 12.9248 352.644C12.9643 352.446 12.944 352.241 12.8666 352.054C12.7891 351.867 12.658 351.708 12.4897 351.595C12.3215 351.483 12.1237 351.423 11.9213 351.423C11.65 351.423 11.3897 351.531 11.1979 351.722C11.006 351.914 10.8982 352.174 10.8982 352.445Z" fill="#263238"/>
<path d="M6.89263 351.934C6.78746 352.109 6.73695 352.311 6.74757 352.514C6.75818 352.718 6.82945 352.913 6.95222 353.076C7.07499 353.239 7.24365 353.361 7.43655 353.427C7.62944 353.494 7.83776 353.501 8.03476 353.448C8.23177 353.395 8.40845 353.285 8.54213 353.131C8.6758 352.977 8.76037 352.786 8.78497 352.584C8.80957 352.382 8.77308 352.177 8.68018 351.996C8.58728 351.814 8.44222 351.665 8.26362 351.566C8.03184 351.438 7.75951 351.405 7.50385 351.474C7.24819 351.543 7.0291 351.707 6.89263 351.934Z" fill="#263238"/>
<path d="M11.8395 340.733C11.7724 340.749 11.7038 340.758 11.6348 340.759L11.0414 340.8C10.9135 340.8 10.7652 340.8 10.6066 340.835L10.095 340.922L9.49138 341.019L8.811 341.198C7.65124 341.511 6.54929 342.008 5.54722 342.67C4.07035 343.626 2.83038 344.904 1.92108 346.409C1.01179 347.914 0.456958 349.606 0.298557 351.357C0.262647 351.881 0.262647 352.406 0.298557 352.93C0.298557 353.196 0.298556 353.441 0.349712 353.733C0.400869 354.024 0.436678 354.274 0.477604 354.545C0.678484 355.66 1.04216 356.74 1.55701 357.749C2.68186 359.926 4.47447 361.686 6.67266 362.772C7.82001 363.357 9.06163 363.736 10.3406 363.891C10.6642 363.939 10.9906 363.966 11.3177 363.973C11.6465 363.991 11.9761 363.991 12.305 363.973C12.971 363.948 13.6336 363.864 14.2847 363.723C15.6901 363.42 17.0273 362.86 18.2289 362.072L18.2852 362.031H18.3517L22.4442 363.682L22.2703 363.835C21.8559 362.333 21.4569 360.866 21.0732 359.451V359.389L21.1141 359.343C22.1923 357.912 22.9226 356.25 23.2474 354.489C23.4045 353.659 23.4612 352.813 23.4162 351.97C23.4099 351.564 23.3722 351.159 23.3036 350.759C23.2781 350.565 23.2474 350.365 23.2167 350.171C23.186 349.977 23.1246 349.788 23.0786 349.599C22.5275 347.409 21.352 345.426 19.6948 343.89C18.0376 342.355 15.9699 341.333 13.7425 340.948C13.4356 340.907 13.1644 340.846 12.9291 340.825L12.3306 340.784L11.9622 340.759H11.8395H11.9622H12.3306H12.9342C13.1747 340.759 13.4458 340.825 13.7578 340.866C13.9113 340.866 14.075 340.907 14.2694 340.938L14.781 341.07L15.3693 341.203L15.9831 341.423C16.9534 341.775 17.8708 342.258 18.7098 342.859C20.989 344.465 22.6213 346.829 23.3139 349.527C23.3599 349.721 23.4213 349.911 23.4571 350.11L23.5492 350.708C23.622 351.116 23.6614 351.53 23.6669 351.944C23.7193 352.799 23.666 353.657 23.5083 354.499C23.1825 356.317 22.4324 358.033 21.3188 359.507V359.4L22.5261 363.784L22.5926 364.034L22.3521 363.937L18.2596 362.292H18.3824C16.5734 363.491 14.4692 364.169 12.2999 364.254C11.9591 364.272 11.6175 364.272 11.2767 364.254C10.9341 364.249 10.5922 364.22 10.2536 364.167C8.94714 364.008 7.67928 363.619 6.50896 363.017C5.37782 362.444 4.34241 361.7 3.43957 360.81C2.59067 359.94 1.87216 358.952 1.30634 357.877C0.77753 356.848 0.401832 355.748 0.191128 354.612L0.0683498 353.784C0.0274246 353.513 0.0325439 353.237 0.0120813 352.966C-0.0111345 352.431 -0.000884487 351.895 0.0427739 351.362C0.24 349.412 0.908896 347.539 1.99184 345.904C2.89873 344.569 4.06841 343.432 5.42955 342.563C6.44903 341.901 7.5708 341.413 8.74961 341.116L9.43511 340.943L10.049 340.856L10.5606 340.784C10.7191 340.784 10.8675 340.784 11.0005 340.784H11.5939L11.8395 340.733Z" fill="#263238"/>
<path d="M55.0411 333.651C55.5082 332.596 56.2635 331.695 57.2203 331.05C58.1772 330.404 59.2967 330.042 60.4505 330.003C61.6042 329.965 62.7455 330.252 63.7432 330.832C64.7409 331.412 65.5546 332.262 66.0909 333.283C66.7253 334.484 66.9811 335.909 67.9019 336.911C68.4956 337.522 69.2879 337.901 70.1365 337.981C70.9852 338.06 71.8344 337.835 72.5316 337.345C72.6946 338.081 72.5868 338.85 72.2278 339.513C71.8689 340.176 71.283 340.687 70.5774 340.953L72.8385 341.183C71.6158 343.845 68.2753 345.061 65.385 344.54C62.4946 344.019 60.0391 342.113 58.0747 339.941" fill="#2F4362"/>
<path d="M55.0565 333.692L62.0343 335.971C64.5168 337.58 66.4048 339.956 67.4108 342.736C67.7382 343.676 67.9582 344.658 68.3725 345.562C68.7465 346.496 69.4436 347.265 70.337 347.729C71.0071 348.025 71.7693 348.061 72.4548 348.316C73.0342 348.544 73.5498 348.908 73.9577 349.378C74.3657 349.848 74.6539 350.409 74.7978 351.014C74.9371 351.622 74.9531 352.252 74.8451 352.866C74.737 353.481 74.507 354.067 74.1686 354.591C73.8361 355.102 73.3961 355.613 73.3654 356.242C73.3923 356.66 73.4784 357.073 73.6212 357.468C73.7911 358.17 73.7307 358.908 73.449 359.574C73.1672 360.239 72.6791 360.797 72.0563 361.164C71.4336 361.531 70.7092 361.689 69.9898 361.615C69.2705 361.54 68.5942 361.236 68.0605 360.749C67.6154 361.771 67.0374 362.828 66.0142 363.304C64.9911 363.779 63.5127 363.35 63.3029 362.256C63.0493 362.788 62.6263 363.221 62.1002 363.488C61.5741 363.754 60.9744 363.839 60.3948 363.73C59.8152 363.62 59.2883 363.322 58.8963 362.881C58.5043 362.441 58.2694 361.883 58.2282 361.295L39.1059 340.457C41.9707 332.838 53.133 333.538 55.0565 333.692Z" fill="#2F4362"/>
<path d="M58.2947 340.938C58.8879 340.998 59.4367 341.279 59.832 341.725C60.2272 342.171 60.44 342.749 60.4279 343.344L59.0774 375.44C59.0262 379.231 52.1252 383.707 48.0532 383.615C43.9606 383.529 45.1526 379.18 45.0912 375.578C44.994 369.553 44.994 367.294 44.994 367.325C44.994 367.356 39.7965 366.467 38.7222 359.716C38.1851 356.354 38.3539 350.846 38.6404 346.349C38.8962 342.297 41.5921 337.325 45.6437 337.749L58.2947 340.938Z" fill="#FCC5B6"/>
<path d="M40.4002 350.718C40.3974 350.944 40.4837 351.163 40.6407 351.326C40.7976 351.49 41.0125 351.585 41.2391 351.592C41.3496 351.601 41.4608 351.587 41.5662 351.553C41.6715 351.518 41.7687 351.463 41.8522 351.39C41.9357 351.317 42.0037 351.228 42.0522 351.128C42.1006 351.029 42.1286 350.92 42.1344 350.81C42.1372 350.584 42.0515 350.367 41.8957 350.203C41.7398 350.04 41.5262 349.944 41.3005 349.936C41.1897 349.927 41.0783 349.94 40.9726 349.975C40.867 350.009 40.7694 350.065 40.6855 350.138C40.6016 350.21 40.5332 350.299 40.4842 350.399C40.4352 350.499 40.4066 350.607 40.4002 350.718Z" fill="#263238"/>
<path d="M39.8374 349.21C39.9449 349.323 40.6048 348.837 41.5409 348.843C42.4771 348.848 43.1626 349.308 43.2649 349.195C43.3672 349.083 43.2035 348.94 42.9068 348.725C42.5001 348.447 42.0184 348.299 41.5256 348.301C41.0391 348.299 40.5645 348.451 40.1699 348.735C39.8835 348.955 39.7863 349.159 39.8374 349.21Z" fill="#263238"/>
<path d="M49.5469 350.718C49.5442 350.944 49.6305 351.163 49.7875 351.326C49.9444 351.49 50.1593 351.585 50.3859 351.592C50.4964 351.601 50.6076 351.588 50.7129 351.553C50.8183 351.518 50.9155 351.463 50.999 351.39C51.0825 351.317 51.1505 351.228 51.1989 351.128C51.2474 351.029 51.2754 350.92 51.2811 350.81C51.2826 350.584 51.1958 350.366 51.0392 350.203C50.8825 350.04 50.6684 349.944 50.4422 349.936C50.3318 349.928 50.2209 349.941 50.1159 349.976C50.0109 350.011 49.9138 350.067 49.8305 350.14C49.7472 350.212 49.6792 350.301 49.6305 350.4C49.5818 350.5 49.5534 350.608 49.5469 350.718Z" fill="#263238"/>
<path d="M49.0354 349.379C49.1428 349.491 49.8027 349.006 50.7389 349.011C51.675 349.016 52.3605 349.476 52.4577 349.364C52.5549 349.251 52.4015 349.108 52.0996 348.894C51.6952 348.615 51.2149 348.467 50.7235 348.47C50.2374 348.47 49.7636 348.622 49.3679 348.904C49.0814 349.129 48.9842 349.333 49.0354 349.379Z" fill="#263238"/>
<path d="M45.6386 356.298C45.1404 356.143 44.6249 356.05 44.1039 356.022C43.8686 356.022 43.6384 355.95 43.5923 355.792C43.5707 355.546 43.6262 355.3 43.7509 355.087L44.4569 353.273C45.4391 350.692 46.145 348.572 46.0427 348.531C45.9404 348.49 45.0554 350.575 44.0783 353.13C43.843 353.763 43.6128 354.371 43.3979 354.954C43.2495 355.24 43.2061 355.569 43.2751 355.884C43.311 355.968 43.3648 356.043 43.4329 356.104C43.5009 356.165 43.5816 356.21 43.6691 356.237C43.8012 356.27 43.9368 356.289 44.0732 356.293C44.5928 356.358 45.1185 356.36 45.6386 356.298Z" fill="#263238"/>
<path d="M44.994 367.325C48.1858 367.375 51.329 366.54 54.0743 364.913C54.0743 364.913 51.8694 369.553 45.0861 368.919L44.994 367.325Z" fill="#EB996E"/>
<path d="M46.0632 358.546C46.2429 358.318 46.4787 358.14 46.7476 358.03C47.0166 357.92 47.3095 357.881 47.5979 357.918C47.8048 357.936 48.0058 357.996 48.1887 358.095C48.3716 358.193 48.5326 358.328 48.6619 358.49C48.7867 358.645 48.8606 358.835 48.8734 359.033C48.8862 359.232 48.8374 359.429 48.7335 359.599C48.5837 359.766 48.3871 359.885 48.1692 359.939C47.9513 359.994 47.7221 359.982 47.5109 359.905C47.0676 359.753 46.6603 359.511 46.3138 359.195C46.2066 359.123 46.1159 359.029 46.0478 358.919C46.0131 358.869 45.9945 358.809 45.9945 358.748C45.9945 358.687 46.0131 358.627 46.0478 358.577" fill="#EB996E"/>
<path d="M48.3959 356.942C48.2424 356.942 48.2373 357.964 47.3728 358.664C46.5082 359.364 45.4237 359.272 45.4186 359.41C45.4135 359.548 45.659 359.609 46.1143 359.619C46.7095 359.626 47.2884 359.426 47.7513 359.052C48.1916 358.692 48.4756 358.176 48.5443 357.611C48.575 357.187 48.4624 356.937 48.3959 356.942Z" fill="#263238"/>
<path d="M48.621 347.754C48.7131 348.005 49.6441 347.887 50.744 348.02C51.8439 348.153 52.7289 348.449 52.8721 348.219C52.9386 348.112 52.7851 347.872 52.4271 347.626C51.9507 347.322 51.4091 347.135 50.8463 347.08C50.2845 347.012 49.7148 347.079 49.1837 347.274C48.7796 347.432 48.575 347.632 48.621 347.754Z" fill="#263238"/>
<path d="M40.1853 346.512C40.349 346.727 40.9936 346.512 41.766 346.512C42.5385 346.512 43.1984 346.656 43.3519 346.431C43.4184 346.323 43.3109 346.114 43.0245 345.92C42.6376 345.68 42.1883 345.559 41.7332 345.574C41.278 345.588 40.8373 345.737 40.4666 346.001C40.2006 346.191 40.1085 346.41 40.1853 346.512Z" fill="#263238"/>
<path d="M59.681 351.74C59.9557 351.591 60.2661 351.52 60.5783 351.535C60.8904 351.551 61.1924 351.651 61.4511 351.827C62.0777 352.19 62.559 352.759 62.8132 353.437C63.0674 354.114 63.0788 354.859 62.8456 355.544C62.6123 356.229 62.1487 356.813 61.5336 357.195C60.9185 357.578 60.1898 357.735 59.4713 357.642" fill="#FFBE9D"/>
<path d="M49.02 335.501C46.5492 335.582 44.6768 336.334 42.5078 337.514C40.2954 338.663 38.6302 340.642 37.8781 343.017C37.7825 343.263 37.7382 343.526 37.7478 343.79C37.7575 344.053 37.821 344.312 37.9344 344.55C38.149 344.822 38.452 345.011 38.791 345.084C39.13 345.157 39.4838 345.109 39.7914 344.949C40.407 344.615 40.9333 344.138 41.3261 343.559C41.49 344.184 41.8582 344.736 42.3723 345.128C42.8864 345.52 43.517 345.729 44.1637 345.722C44.8103 345.715 45.4361 345.492 45.9416 345.089C46.447 344.686 46.8031 344.126 46.9533 343.498C46.9533 344.796 48.268 345.863 49.5674 345.817C50.2174 345.762 50.8368 345.517 51.3495 345.114C51.8621 344.711 52.2455 344.167 52.4526 343.549C52.6137 344.719 53.0199 345.842 53.6446 346.845C54.3403 347.8 55.5885 348.459 56.714 348.091C56.5554 349.113 56.4019 350.161 56.76 351.111C57.1181 352.062 58.1822 352.838 59.149 352.511C60.1159 352.184 60.4535 351.081 60.6837 350.115C61.1643 348.266 61.4084 346.363 61.4101 344.453C61.4709 342.484 60.8287 340.557 59.5982 339.017C58.3678 337.477 56.6292 336.425 54.6933 336.047C52.759 335.614 50.7751 335.442 48.7949 335.536" fill="#2F4362"/>
<path d="M60.1517 355.629C60.1517 355.583 60.4177 355.685 60.7451 355.537C60.9442 355.422 61.1052 355.251 61.208 355.046C61.3108 354.841 61.3509 354.61 61.3232 354.382C61.3218 354.151 61.2527 353.925 61.1246 353.732C60.9964 353.54 60.8147 353.389 60.6019 353.298C60.2642 353.16 60.0136 353.227 59.9982 353.176C59.9829 353.125 60.2284 352.961 60.6786 353.063C60.9374 353.127 61.1689 353.272 61.3385 353.477C61.5451 353.729 61.6637 354.041 61.6762 354.366C61.7108 354.662 61.6462 354.96 61.4924 355.214C61.3387 355.469 61.1046 355.665 60.827 355.772C60.387 355.889 60.1159 355.654 60.1517 355.629Z" fill="#EB996E"/>
<path d="M60.3563 358.464C60.8451 358.464 61.2413 358.071 61.2413 357.586C61.2413 357.1 60.8451 356.707 60.3563 356.707C59.8675 356.707 59.4713 357.1 59.4713 357.586C59.4713 358.071 59.8675 358.464 60.3563 358.464Z" fill="#FFBE9D"/>
<path d="M55.1486 333.344C55.5031 333.229 55.8773 333.188 56.2484 333.222C57.153 333.265 58.0342 333.523 58.8189 333.974C59.6036 334.426 60.2692 335.058 60.7604 335.817C60.9796 336.122 61.1297 336.471 61.2004 336.839C61.1544 336.839 60.9907 336.471 60.6019 335.93C60.09 335.231 59.4373 334.646 58.6858 334.214C57.9342 333.782 57.1005 333.512 56.2382 333.421C55.5732 333.344 55.1537 333.395 55.1486 333.344Z" fill="#E8505B"/>
<path d="M58.6937 333.349C58.6937 333.349 58.6937 333.278 58.6681 333.14C58.6714 332.932 58.7148 332.728 58.796 332.537C58.9625 332.191 59.2072 331.889 59.5109 331.654C59.8146 331.419 60.1688 331.257 60.5456 331.183C61.5176 330.917 62.7402 331.413 63.5894 332.348C64.0371 332.839 64.4095 333.393 64.6944 333.993C64.9962 334.606 65.2418 335.266 65.4975 335.93C65.7347 336.58 66.0255 337.209 66.3672 337.81C66.6912 338.357 67.1084 338.843 67.6001 339.246C68.0406 339.61 68.5704 339.85 69.1348 339.941C69.6265 340.011 70.1281 339.942 70.5825 339.742C71.2528 339.444 71.7963 338.919 72.1172 338.26C72.2176 338.011 72.2997 337.755 72.3627 337.493C72.3627 337.493 72.3627 337.565 72.3627 337.708C72.3346 337.911 72.2831 338.11 72.2093 338.301C71.9173 339.01 71.3697 339.585 70.6746 339.91C70.1966 340.136 69.6648 340.223 69.1399 340.161C68.5342 340.071 67.9636 339.82 67.4875 339.435C66.9648 339.022 66.5226 338.516 66.183 337.943C65.8322 337.331 65.5344 336.69 65.2929 336.027C64.7813 334.693 64.2698 333.411 63.4513 332.516C62.6328 331.622 61.5227 331.147 60.6274 331.367C60.2725 331.429 59.9361 331.57 59.643 331.78C59.35 331.99 59.1077 332.262 58.9342 332.578C58.8135 332.821 58.7324 333.081 58.6937 333.349Z" fill="#455A64"/>
<path d="M45.9199 343.758C45.9199 343.758 45.8944 343.697 45.879 343.574C45.8473 343.395 45.8251 343.214 45.8125 343.033C45.7681 342.362 45.8111 341.689 45.9404 341.03C46.1239 340.048 46.4697 339.103 46.9635 338.234C47.5802 337.169 48.4174 336.248 49.419 335.531C51.2664 334.263 53.4769 333.63 55.7164 333.727C56.3899 333.756 57.0562 333.878 57.6962 334.09C57.8712 334.144 58.0422 334.211 58.2077 334.29C58.3203 334.341 58.3765 334.371 58.3765 334.382C57.5137 334.112 56.6195 333.956 55.7164 333.917C53.5302 333.879 51.3859 334.518 49.5776 335.746C48.6053 336.439 47.7896 337.329 47.1835 338.357C46.6876 339.198 46.3285 340.112 46.1194 341.065C45.9544 341.953 45.8875 342.856 45.9199 343.758Z" fill="#455A64"/>
<path d="M50.1915 343.324C50.1676 343.154 50.1676 342.982 50.1915 342.813C50.217 342.334 50.2837 341.859 50.391 341.392C50.7469 339.837 51.5054 338.403 52.5907 337.233C53.6809 336.067 55.056 335.204 56.581 334.729C57.04 334.586 57.5107 334.483 57.9878 334.422C58.1575 334.399 58.3296 334.399 58.4993 334.422C58.4993 334.474 57.7576 334.535 56.627 334.933C55.1544 335.437 53.8296 336.297 52.7709 337.436C51.7122 338.576 50.9525 339.96 50.5598 341.464C50.2427 342.578 50.2427 343.329 50.1915 343.324Z" fill="#455A64"/>
<path d="M49.02 383.217C47.5416 378.689 43.9044 374.075 39.9448 375.736C35.5198 377.591 34.2869 379.941 31.8621 383.58C29.4373 387.218 27.9486 391.382 26.4856 395.501C25.9126 397.111 25.3601 398.981 26.2349 400.447C26.992 401.715 28.5523 402.21 29.9847 402.594C33.6679 403.575 37.387 404.413 41.1419 405.108C42.6766 405.389 44.2983 405.619 45.6283 404.867C47.3216 403.912 47.8332 401.766 48.1862 399.86L51.895 379.803" fill="#3471D3"/>
<path d="M44.7638 373.564L38.9422 376.073C35.9956 378.388 35.1668 382.353 35.264 386.083L32.8443 427.05C32.8443 427.05 49.8283 437.535 69.677 426.569C70.1886 426.283 66.3519 416.917 66.3519 416.917L71.7591 396.477C72.1735 393.534 72.4292 387.438 71.6619 384.545C69.6924 377.126 64.4232 374.908 59.0109 373.421C59.0109 373.421 53.5985 377.959 48.3141 376.998C48.3141 376.973 45.0912 376.681 44.7638 373.564Z" fill="#3471D3"/>
<g opacity="0.2">
<path d="M36.942 407.658C40.3047 412.515 43.6639 417.378 47.0198 422.246C48.3345 424.147 49.7004 426.099 51.6239 427.356C53.0491 428.274 54.712 428.756 56.4079 428.743C58.1038 428.729 59.7587 428.22 61.1689 427.279C62.5791 426.338 63.6831 425.006 64.3449 423.446C65.0068 421.886 65.1976 420.167 64.8939 418.501C64.8503 418.103 64.6941 417.725 64.4437 417.412C64.2142 417.207 63.9328 417.067 63.6299 417.01C63.3269 416.952 63.014 416.978 62.7249 417.085C62.1486 417.302 61.5966 417.577 61.0776 417.908C57.911 419.584 53.8901 418.685 50.923 416.682C47.956 414.679 45.7767 411.74 43.5054 408.976C42.6613 407.954 41.7456 406.901 40.5025 406.421C39.2594 405.941 37.607 406.339 37.0801 407.55" fill="black"/>
</g>
<path d="M53.9208 387.591C55.842 387.591 57.3995 386.04 57.3995 384.126C57.3995 382.213 55.842 380.662 53.9208 380.662C51.9996 380.662 50.4422 382.213 50.4422 384.126C50.4422 386.04 51.9996 387.591 53.9208 387.591Z" fill="white"/>
<path d="M37.6991 381.168C37.696 381.857 37.8979 382.531 38.2791 383.106C38.6603 383.68 39.2036 384.129 39.8402 384.394C40.4768 384.66 41.178 384.731 41.8549 384.598C42.5319 384.465 43.154 384.134 43.6426 383.647C44.1311 383.161 44.464 382.54 44.5991 381.864C44.7342 381.189 44.6654 380.488 44.4014 379.851C44.1374 379.215 43.6901 378.671 43.1162 378.288C42.5423 377.906 41.8676 377.702 41.1777 377.703C40.7216 377.703 40.2698 377.792 39.8481 377.965C39.4264 378.139 39.0431 378.394 38.7201 378.716C38.3971 379.038 38.1406 379.42 37.9655 379.84C37.7903 380.261 37.6998 380.712 37.6991 381.168Z" fill="white"/>
<path d="M34.8957 414.362C34.8947 415.049 35.0979 415.721 35.4795 416.293C35.8611 416.866 36.404 417.312 37.0396 417.576C37.6751 417.839 38.3747 417.909 39.0499 417.775C39.725 417.642 40.3453 417.311 40.8323 416.826C41.3193 416.34 41.6511 415.721 41.7858 415.047C41.9204 414.372 41.8518 413.673 41.5887 413.038C41.3255 412.403 40.8797 411.86 40.3075 411.478C39.7353 411.096 39.0626 410.892 38.3744 410.892C37.9178 410.891 37.4655 410.981 37.0435 411.155C36.6215 411.329 36.238 411.584 35.9149 411.906C35.5918 412.229 35.3355 412.611 35.1606 413.033C34.9857 413.454 34.8957 413.906 34.8957 414.362Z" fill="white"/>
<path d="M44.6615 427.806C46.5827 427.806 48.1401 426.255 48.1401 424.341C48.1401 422.428 46.5827 420.877 44.6615 420.877C42.7403 420.877 41.1828 422.428 41.1828 424.341C41.1828 426.255 42.7403 427.806 44.6615 427.806Z" fill="white"/>
<path d="M60.8781 428.649C62.7993 428.649 64.3567 427.098 64.3567 425.184C64.3567 423.271 62.7993 421.72 60.8781 421.72C58.9569 421.72 57.3995 423.271 57.3995 425.184C57.3995 427.098 58.9569 428.649 60.8781 428.649Z" fill="white"/>
<path d="M47.1375 407.305C49.0587 407.305 50.6161 405.754 50.6161 403.84C50.6161 401.927 49.0587 400.376 47.1375 400.376C45.2163 400.376 43.6588 401.927 43.6588 403.84C43.6588 405.754 45.2163 407.305 47.1375 407.305Z" fill="white"/>
<path d="M43.6588 396.375C45.58 396.375 47.1375 394.824 47.1375 392.91C47.1375 390.997 45.58 389.446 43.6588 389.446C41.7376 389.446 40.1802 390.997 40.1802 392.91C40.1802 394.824 41.7376 396.375 43.6588 396.375Z" fill="white"/>
<path d="M43.6588 374.418C44.1231 375.25 44.729 375.995 45.4493 376.62C46.2476 377.275 47.1646 377.772 48.1504 378.081C49.353 378.468 50.6238 378.597 51.8797 378.46C53.1365 378.303 54.3576 377.935 55.4913 377.371C56.4197 376.912 57.2975 376.357 58.1105 375.716C58.6637 375.284 59.1947 374.826 59.7015 374.341C59.8792 374.156 60.0707 373.985 60.2745 373.83C60.1247 374.045 59.9533 374.243 59.7629 374.423C59.2838 374.94 58.7712 375.424 58.2282 375.874C57.4181 376.545 56.5363 377.124 55.5988 377.601C54.4448 378.191 53.1966 378.575 51.9104 378.735C50.6169 378.877 49.3081 378.737 48.0736 378.327C47.0666 378 46.1334 377.479 45.3265 376.794C44.7858 376.328 44.329 375.773 43.976 375.153C43.8795 374.99 43.7957 374.819 43.7253 374.642C43.6742 374.474 43.6486 374.418 43.6588 374.418Z" fill="#263238"/>
<path d="M61.185 374.167C65.165 375.828 69.3087 377.606 72.0558 380.923C74.8029 384.239 75.8209 388.863 75.6368 393.227C75.4526 397.591 74.1635 401.827 72.8999 406.002C72.3883 407.637 71.7437 409.472 70.163 410.136C68.8022 410.713 67.2471 410.197 65.871 409.661C62.3139 408.298 58.8148 406.782 55.3737 405.113C53.9975 404.454 52.5242 403.672 51.9001 402.277C51.1072 400.509 51.9615 398.48 52.8107 396.733L61.7222 378.373" fill="#3471D3"/>
<path d="M69.677 398.812C71.5982 398.812 73.1557 397.261 73.1557 395.348C73.1557 393.434 71.5982 391.883 69.677 391.883C67.7558 391.883 66.1984 393.434 66.1984 395.348C66.1984 397.261 67.7558 398.812 69.677 398.812Z" fill="white"/>
<path d="M60.4638 405.149C62.385 405.149 63.9424 403.597 63.9424 401.684C63.9424 399.771 62.385 398.219 60.4638 398.219C58.5426 398.219 56.9851 399.771 56.9851 401.684C56.9851 403.597 58.5426 405.149 60.4638 405.149Z" fill="white"/>
<path d="M61.4101 384.668C61.4081 385.343 61.6065 386.003 61.9802 386.564C62.3539 387.126 62.8861 387.565 63.5094 387.824C64.1327 388.084 64.8191 388.153 65.4817 388.022C66.1442 387.892 66.7532 387.568 67.2314 387.092C67.7096 386.616 68.0356 386.008 68.1681 385.347C68.3006 384.686 68.2336 384 67.9757 383.376C67.7177 382.753 67.2804 382.22 66.719 381.845C66.1577 381.47 65.4976 381.27 64.8223 381.27C64.3749 381.269 63.9317 381.357 63.5181 381.527C63.1045 381.697 62.7285 381.948 62.4116 382.263C62.0948 382.579 61.8433 382.953 61.6714 383.366C61.4996 383.779 61.4108 384.221 61.4101 384.668Z" fill="white"/>
<path d="M54.3147 404.592L53.4246 408L35.7449 395.133L30.3326 387.468C29.6048 386.436 28.5046 385.725 27.2632 385.486C26.6132 385.36 25.9444 385.367 25.2972 385.506C24.6501 385.646 24.038 385.915 23.498 386.298L18.4591 389.875C18.4591 389.875 18.5972 392.583 19.8199 392.042C21.0425 391.5 23.4929 390.146 23.4929 390.146L24.1733 396.646L27.166 398.812L30.1586 401.117L50.1097 420.907C51.1087 421.898 52.3286 422.639 53.6693 423.068C55.0101 423.497 56.4336 423.603 57.8231 423.376C59.2127 423.15 60.5288 422.598 61.6635 421.766C62.7983 420.933 63.7195 419.844 64.3516 418.588L67.3341 410.187L54.3147 404.592Z" fill="#FCC5B6"/>
<path d="M52.9795 407.514C53.2675 407.59 53.526 407.75 53.7213 407.974C54.224 408.477 54.578 409.108 54.7444 409.799C54.9088 410.481 54.9743 411.183 54.9388 411.883C54.9511 412.171 54.9166 412.46 54.8365 412.737C54.7646 412.458 54.7353 412.171 54.7495 411.883C54.7315 411.205 54.644 410.531 54.4886 409.87C54.3252 409.219 54.0136 408.614 53.5781 408.102C53.2251 407.719 52.9591 407.555 52.9795 407.514Z" fill="#EB996E"/>
<path d="M23.4776 390.452C23.4469 390.452 23.5338 390.228 23.7436 389.941C24.0135 389.531 24.4052 389.214 24.8639 389.037C25.105 388.953 25.3641 388.935 25.6147 388.983C25.8654 389.032 26.0988 389.145 26.2912 389.313C26.5777 389.589 26.5674 389.865 26.5418 389.86C26.5163 389.855 26.4395 389.65 26.1684 389.456C25.9916 389.337 25.7901 389.261 25.5791 389.231C25.3682 389.202 25.1533 389.221 24.9509 389.287C24.5399 389.457 24.1751 389.721 23.8868 390.059C23.6515 390.304 23.5083 390.478 23.4776 390.452Z" fill="#EB996E"/>
<path d="M26.6237 392.19C26.593 392.215 26.46 392.098 26.2144 391.96C25.9013 391.786 25.5496 391.693 25.1913 391.689C24.8317 391.693 24.4792 391.79 24.1682 391.97C23.9278 392.108 23.7947 392.231 23.7641 392.2C23.7334 392.169 23.8203 392.011 24.0608 391.817C24.3809 391.565 24.7763 391.428 25.1836 391.428C25.5909 391.428 25.9864 391.565 26.3065 391.817C26.5828 391.996 26.6697 392.169 26.6237 392.19Z" fill="#EB996E"/>
<path d="M54.3147 404.566C54.1967 404.562 54.0805 404.536 53.972 404.489C53.6563 404.362 53.3807 404.152 53.1739 403.881C52.8474 403.454 52.6472 402.944 52.5959 402.41C52.5485 401.708 52.6769 401.005 52.9693 400.366C53.2609 399.64 53.6957 398.909 54.0641 398.092C54.4629 397.219 54.8047 396.321 55.0872 395.404C55.6959 393.462 56.1103 391.265 56.7395 388.991C57.2596 386.82 58.1323 384.748 59.3229 382.859C60.3216 381.316 61.7271 380.079 63.3848 379.282C64.4992 378.746 65.7302 378.497 66.9657 378.557C67.4153 378.578 67.8596 378.662 68.2856 378.807C68.2856 378.843 67.8149 378.695 66.9606 378.664C65.7494 378.64 64.5505 378.91 63.4666 379.451C61.8596 380.255 60.499 381.476 59.5276 382.987C58.3674 384.856 57.5142 386.899 57.0004 389.037C56.3917 391.301 55.9466 393.503 55.3225 395.455C55.0339 396.38 54.6836 397.285 54.2738 398.163C53.8901 398.991 53.4451 399.696 53.1535 400.417C52.8587 401.033 52.7199 401.712 52.7493 402.394C52.7883 402.907 52.9651 403.399 53.2609 403.82C53.4517 404.084 53.7047 404.296 53.9975 404.438C54.1971 404.566 54.3147 404.566 54.3147 404.566Z" fill="#263238"/>
<path d="M34.6911 393.493C34.7494 392.009 34.8963 390.529 35.131 389.063C35.2762 387.585 35.5103 386.118 35.8319 384.668C35.7739 386.152 35.6287 387.631 35.397 389.098C35.2518 390.576 35.016 392.044 34.6911 393.493Z" fill="#263238"/>
<path d="M26.7414 401.081L25.8052 408.46L14.5508 398.874L8.41198 400.355C8.41198 400.355 14.7656 413.682 19.7841 418.955C24.8025 424.229 27.5087 424.985 29.4015 425.087C32.0054 425.2 33.1922 422.021 33.1922 422.021L34.2972 403.677L26.7414 401.081Z" fill="#FCC5B6"/>
<path d="M25.8461 408.266C26.2331 408.817 26.503 409.441 26.639 410.1C26.8602 410.738 26.9506 411.414 26.9051 412.088C26.694 411.461 26.5231 410.821 26.3935 410.172C26.1714 409.548 25.9886 408.912 25.8461 408.266Z" fill="#EB996E"/>
<path d="M13.4509 380.171H4.96914C3.69023 380.171 2.54433 381.653 3.00474 382.869L11.5325 399.456C11.6938 399.771 11.9392 400.036 12.2416 400.221C12.544 400.406 12.8917 400.504 13.2463 400.504H23.585C23.8271 400.476 24.0587 400.39 24.2592 400.252C24.4597 400.113 24.6229 399.928 24.7343 399.711C24.8457 399.495 24.9018 399.254 24.8976 399.011C24.8935 398.768 24.8292 398.529 24.7104 398.317L16.4845 382.082C16.2096 381.511 15.7793 381.029 15.2427 380.691C14.7062 380.353 14.0852 380.173 13.4509 380.171Z" fill="#455A64"/>
<path d="M12.8779 381.168H4.39619C4.15559 381.169 3.91921 381.231 3.70934 381.349C3.49947 381.466 3.32301 381.635 3.1966 381.84C3.07018 382.044 2.99798 382.277 2.98679 382.517C2.97559 382.757 3.02578 382.996 3.13262 383.212L11.4558 399.456C11.6179 399.772 11.8642 400.037 12.1675 400.222C12.4708 400.407 12.8193 400.504 13.1746 400.504H23.406C23.5478 400.503 23.6872 400.466 23.8108 400.397C23.9345 400.327 24.0384 400.228 24.1126 400.107C24.1869 399.986 24.2291 399.848 24.2352 399.707C24.2414 399.565 24.2113 399.424 24.1477 399.298L15.9115 383.053C15.633 382.487 15.2011 382.01 14.6649 381.677C14.1286 381.344 13.5095 381.167 12.8779 381.168Z" fill="#2F4362"/>
<path d="M12.1566 387.964L7.00006 390.008L5.89508 394.157L8.37617 400.34L17.4974 401.669L14.827 398.945L15.1698 396.574C15.1698 396.574 17.7276 395.777 17.7787 395.389C17.8299 395 17.4616 393.692 17.0728 393.631C16.684 393.569 14.0034 394.561 14.0034 394.561C14.0034 394.561 17.1597 392.062 17.0728 391.663C16.9858 391.265 16.6431 390.233 16.0138 390.131C15.3846 390.028 10.2894 392.415 10.2894 392.415L9.46069 394.3L8.74961 391.28C8.74961 391.28 13.277 390.018 12.1566 387.964Z" fill="#FFBE9D"/>
<path d="M12.8114 397.698C12.7807 397.698 12.6835 397.519 12.6375 397.187C12.5842 396.747 12.6366 396.301 12.7905 395.885C12.9444 395.469 13.1954 395.096 13.5225 394.796C13.7783 394.576 13.9727 394.494 13.9932 394.52C13.6029 394.954 13.2819 395.445 13.0416 395.976C12.8799 396.536 12.8023 397.116 12.8114 397.698Z" fill="#EB996E"/>
<path d="M10.3559 396.799C10.4516 396.354 10.52 395.903 10.5606 395.45C10.5814 394.942 10.6691 394.438 10.8215 393.953C10.9213 393.656 11.0835 393.384 11.2972 393.156C11.5372 392.927 11.8232 392.753 12.1362 392.645C13.3742 392.2 14.4843 391.837 15.2976 391.577C15.7275 391.41 16.1731 391.287 16.6277 391.209C16.2272 391.425 15.8055 391.6 15.3693 391.73C14.5763 392.037 13.456 392.435 12.2487 392.875C11.967 392.976 11.7092 393.134 11.4916 393.34C11.3014 393.541 11.1551 393.779 11.0619 394.04C10.9075 394.504 10.8046 394.984 10.755 395.47C10.7406 395.941 10.603 396.399 10.3559 396.799Z" fill="#EB996E"/>
<path d="M9.16909 395.879C9.09747 395.879 9.11282 395.414 9.2049 394.857C9.29698 394.3 9.42999 393.871 9.50161 393.886C9.57323 393.902 9.55788 394.351 9.4658 394.908C9.37372 395.465 9.23048 395.879 9.16909 395.879Z" fill="#EB996E"/>
<path d="M9.03098 384.3C9.03098 384.514 9.09458 384.724 9.21375 384.902C9.33292 385.08 9.5023 385.219 9.70046 385.301C9.89863 385.383 10.1167 385.404 10.3271 385.363C10.5374 385.321 10.7307 385.218 10.8824 385.066C11.034 384.915 11.1373 384.722 11.1792 384.512C11.221 384.301 11.1995 384.084 11.1175 383.886C11.0354 383.688 10.8964 383.518 10.718 383.399C10.5397 383.28 10.33 383.217 10.1155 383.217C9.82786 383.217 9.55201 383.331 9.34862 383.534C9.14524 383.737 9.03098 384.013 9.03098 384.3Z" fill="#FAFAFA"/>
<path d="M30.174 401.091C30.2879 401.162 30.3928 401.246 30.486 401.342L31.3301 402.098L34.3074 404.847L34.3483 404.883V404.939C34.2153 406.661 34.0567 408.685 33.8879 410.846C33.6577 414.019 33.4736 416.886 33.3764 418.966C33.3303 419.988 33.2945 420.805 33.2638 421.429C33.269 421.731 33.2484 422.034 33.2024 422.333C33.1684 422.033 33.1547 421.731 33.1615 421.429C33.1615 420.846 33.1615 420.003 33.1871 418.961C33.2434 416.876 33.3968 413.999 33.627 410.831C33.7856 408.654 33.9595 406.625 34.1386 404.919L34.1744 405.011L31.2278 402.195L30.4246 401.393C30.3283 401.304 30.244 401.202 30.174 401.091Z" fill="#EB996E"/>
<path d="M97.3141 176.72C97.3141 176.922 97.2541 177.12 97.1417 177.288C97.0293 177.456 96.8695 177.587 96.6826 177.664C96.4956 177.742 96.2899 177.762 96.0914 177.722C95.8929 177.683 95.7106 177.586 95.5676 177.443C95.4245 177.3 95.327 177.118 95.2875 176.92C95.2481 176.721 95.2683 176.516 95.3458 176.329C95.4232 176.142 95.5543 175.983 95.7226 175.87C95.8908 175.758 96.0887 175.698 96.291 175.698C96.5624 175.698 96.8226 175.806 97.0145 175.998C97.2064 176.189 97.3141 176.449 97.3141 176.72Z" fill="#263238"/>
<path d="M101.34 176.72C101.34 176.922 101.28 177.12 101.168 177.288C101.055 177.456 100.896 177.587 100.709 177.664C100.522 177.742 100.316 177.762 100.117 177.722C99.919 177.683 99.7366 177.586 99.5936 177.443C99.4505 177.3 99.353 177.118 99.3135 176.92C99.2741 176.721 99.2943 176.516 99.3718 176.329C99.4492 176.142 99.5803 175.983 99.7486 175.87C99.9168 175.758 100.115 175.698 100.317 175.698C100.588 175.698 100.849 175.806 101.04 175.998C101.232 176.189 101.34 176.449 101.34 176.72Z" fill="#263238"/>
<path d="M105.33 176.219C105.436 176.394 105.486 176.596 105.475 176.799C105.465 177.003 105.394 177.199 105.271 177.361C105.148 177.524 104.979 177.646 104.786 177.713C104.594 177.779 104.385 177.786 104.188 177.733C103.991 177.68 103.815 177.57 103.681 177.416C103.547 177.262 103.463 177.072 103.438 176.869C103.413 176.667 103.45 176.462 103.543 176.281C103.636 176.099 103.781 175.95 103.959 175.851C104.191 175.724 104.463 175.691 104.719 175.759C104.975 175.828 105.194 175.993 105.33 176.219Z" fill="#263238"/>
<path d="M100.389 165.024C100.455 165.018 100.522 165.018 100.588 165.024H101.187H101.627L102.138 165.1L102.747 165.187L103.432 165.356C104.613 165.651 105.737 166.14 106.758 166.802C108.51 167.901 109.938 169.448 110.892 171.282C111.846 173.116 112.293 175.172 112.185 177.236C112.185 177.507 112.185 177.783 112.134 178.059C112.083 178.335 112.052 178.606 112.011 178.887C111.801 180.023 111.424 181.121 110.891 182.147C110.325 183.219 109.607 184.204 108.758 185.07C107.854 185.958 106.819 186.703 105.688 187.277C104.515 187.876 103.246 188.265 101.939 188.427C101.6 188.476 101.258 188.503 100.916 188.509C100.575 188.527 100.233 188.527 99.8924 188.509C99.2044 188.48 98.52 188.395 97.8462 188.253C96.4094 187.94 95.0427 187.365 93.815 186.557H93.9378L89.8453 188.202L89.5997 188.299L89.6713 188.044C90.0874 186.541 90.4899 185.08 90.8786 183.659V183.772C89.7652 182.295 89.0135 180.578 88.684 178.759C88.5312 177.916 88.4779 177.059 88.5254 176.204C88.5358 175.791 88.5751 175.38 88.6431 174.973L88.7352 174.37C88.771 174.175 88.8324 173.981 88.8784 173.792C89.5724 171.093 91.2042 168.728 93.4825 167.119C94.3202 166.516 95.2379 166.033 96.2092 165.683L96.823 165.463L97.4062 165.315L97.9178 165.182C98.0866 165.151 98.2554 165.136 98.4293 165.11C98.7363 165.07 99.0125 165.018 99.2478 165.003H99.8515H100.22C100.262 164.997 100.305 164.997 100.348 165.003H100.225L99.8566 165.034L99.2581 165.075C99.0176 165.075 98.7465 165.151 98.4396 165.197C96.2124 165.581 94.1448 166.603 92.4883 168.139C90.8317 169.675 89.6576 171.658 89.1086 173.848C89.0626 174.037 89.0012 174.227 88.9654 174.416C88.9296 174.605 88.9091 174.809 88.8784 175.008C88.8113 175.409 88.7754 175.814 88.771 176.219C88.727 177.061 88.782 177.905 88.9347 178.733C89.2634 180.513 90.0045 182.191 91.0986 183.634L91.1344 183.685V183.741C90.7456 185.162 90.3466 186.625 89.9374 188.131L89.7634 187.977L93.8559 186.327H93.9225L93.9787 186.363C95.1778 187.153 96.5135 187.715 97.9178 188.018C98.5699 188.155 99.2319 188.238 99.8975 188.269C100.226 188.286 100.556 188.286 100.885 188.269C101.212 188.265 101.539 188.237 101.862 188.187C103.141 188.033 104.383 187.654 105.53 187.068C106.639 186.51 107.655 185.784 108.543 184.916C109.378 184.066 110.085 183.099 110.64 182.045C111.163 181.04 111.535 179.964 111.745 178.851L111.868 178.044C111.909 177.773 111.904 177.502 111.924 177.236C111.949 176.712 111.941 176.186 111.899 175.662C111.743 173.912 111.19 172.22 110.281 170.714C109.372 169.209 108.133 167.931 106.655 166.976C105.653 166.311 104.549 165.814 103.386 165.504L102.711 165.32L102.102 165.223L101.591 165.136L101.156 165.105L100.563 165.059L100.389 165.024Z" fill="#263238"/>
<path d="M85.7988 214.544C85.8704 214.544 85.8755 218.166 85.7988 222.633C85.7221 227.099 85.6146 230.716 85.543 230.711C85.4714 230.706 85.4663 227.093 85.543 222.627C85.6197 218.161 85.7272 214.544 85.7988 214.544Z" fill="#263238"/>
<path d="M70.9276 195.407C70.9378 195.495 70.9378 195.584 70.9276 195.673C70.9276 195.846 70.8662 196.102 70.7997 196.429C70.5823 197.352 70.2178 198.233 69.7203 199.04C68.9803 200.243 67.9718 201.259 66.7737 202.009C65.2843 202.909 63.5671 203.361 61.8272 203.312C60.0872 203.263 58.3982 202.715 56.9619 201.733C55.8073 200.916 54.8568 199.844 54.1841 198.601C53.734 197.767 53.4213 196.866 53.2581 195.933C53.215 195.681 53.186 195.427 53.1712 195.172C53.1576 195.082 53.1576 194.991 53.1712 194.901C53.2019 194.901 53.2223 195.269 53.3605 195.923C53.559 196.832 53.8917 197.707 54.3478 198.519C55.027 199.719 55.9676 200.751 57.1 201.539C58.5012 202.482 60.1419 203.009 61.831 203.057C63.5201 203.105 65.1882 202.672 66.6407 201.81C67.8178 201.09 68.8165 200.114 69.5617 198.953C70.0651 198.163 70.4478 197.302 70.6974 196.398C70.856 195.77 70.8969 195.402 70.9276 195.407Z" fill="#263238"/>
<path d="M39.6966 215.637C39.7682 215.637 39.8296 219.168 39.8347 223.522C39.8398 227.875 39.7784 231.406 39.7017 231.406C39.6249 231.406 39.5687 227.875 39.5687 223.522C39.5687 219.168 39.6249 215.637 39.6966 215.637Z" fill="#263238"/>
<path d="M54.7877 193.992H69.9812C69.9812 193.992 83.7167 198.866 88.1827 202.29C92.6487 205.714 99.4985 229.797 99.4985 229.797L85.7783 229.393L84.7552 250.088C70.7025 260.083 53.8362 259.352 40.8118 250.599L39.7886 231.013L28.3603 230.676C24.4979 230.563 24.3138 229.5 24.3138 229.5C24.3138 229.5 33.1025 206.449 35.778 201.989C38.1158 198.105 51.6928 194.63 54.7877 193.986" fill="#2F4362"/>
<path d="M91.3493 207.809C91.1804 207.933 90.9986 208.04 90.807 208.126C90.2622 208.388 89.6749 208.55 89.0728 208.606C88.1185 208.694 87.1562 208.616 86.2285 208.376C85.0071 208.056 83.8237 207.605 82.6987 207.032C81.3541 206.333 79.9482 205.758 78.4988 205.315C76.8167 204.895 75.0546 204.916 73.3831 205.376C71.5324 205.901 69.7539 206.653 68.0884 207.615C66.3337 208.58 64.5535 209.659 62.5993 210.548C60.7057 211.461 58.6245 211.919 56.5219 211.886C54.5737 211.758 52.666 211.271 50.8947 210.451C49.1912 209.72 47.6565 208.866 46.1934 208.126C44.8513 207.42 43.4576 206.817 42.0242 206.322C39.9508 205.572 37.7073 205.423 35.5529 205.893C34.9725 206.032 34.4096 206.236 33.8749 206.501C33.6908 206.587 33.5578 206.674 33.4657 206.72C33.4188 206.748 33.369 206.77 33.3173 206.787L33.4503 206.695C33.5424 206.644 33.6703 206.547 33.8494 206.455C34.3802 206.167 34.9435 205.944 35.5273 205.79C37.7003 205.277 39.9751 205.4 42.0804 206.143C43.529 206.627 44.9368 207.225 46.2906 207.931C47.7639 208.662 49.2986 209.505 50.9919 210.226C52.7384 211.032 54.6178 211.511 56.5373 211.641C58.5981 211.668 60.6368 211.215 62.4919 210.318C64.4256 209.454 66.2007 208.366 67.9656 207.4C69.6489 206.433 71.4465 205.679 73.3166 205.157C75.0299 204.692 76.8347 204.677 78.555 205.116C80.015 205.572 81.4296 206.162 82.7806 206.879C83.8913 207.454 85.0588 207.913 86.2643 208.248C87.1753 208.494 88.1212 208.586 89.0626 208.519C89.6566 208.473 90.239 208.33 90.7866 208.095C91.16 207.916 91.3442 207.799 91.3493 207.809Z" fill="#FAFAFA"/>
<path d="M96.3371 219.357C96.3371 219.357 96.1222 219.224 95.6874 219.03C95.0515 218.745 94.3749 218.56 93.682 218.483C92.5868 218.366 91.4793 218.447 90.4131 218.724C89.0041 219.11 87.6559 219.692 86.4076 220.451C84.9957 221.253 83.5326 222.275 81.8495 223.21C80.1665 224.145 78.2276 225.009 76.0279 225.055C73.8282 225.101 71.608 224.37 69.4696 223.425C67.3313 222.479 65.1572 221.35 62.7528 220.793C60.3882 220.328 57.9555 220.328 55.5909 220.793C53.2837 221.181 51.1147 221.815 49.0275 222.357C47.0572 222.912 45.0504 223.329 43.0217 223.603C41.2468 223.844 39.4454 223.809 37.681 223.501C35.0964 223.068 32.7444 221.747 31.0306 219.766C30.59 219.218 30.2221 218.615 29.9359 217.972L29.7466 217.461C29.7308 217.396 29.7222 217.329 29.721 217.262C30.0645 218.137 30.5426 218.952 31.1381 219.679C32.8542 221.604 35.1804 222.881 37.727 223.297C39.4766 223.599 41.2622 223.632 43.0217 223.394C45.0349 223.106 47.0261 222.68 48.9815 222.122C51.0584 221.565 53.2377 220.931 55.5602 220.538C57.9582 220.062 60.4264 220.062 62.8244 220.538C65.2799 221.105 67.4285 222.254 69.5924 223.19C71.7563 224.125 73.8947 224.886 76.033 224.815C78.1714 224.743 80.0949 223.925 81.7574 223.021C83.42 222.116 84.9036 221.089 86.3308 220.292C87.597 219.534 88.9646 218.959 90.3927 218.586C91.4779 218.318 92.6031 218.25 93.7127 218.386C94.4112 218.474 95.0905 218.676 95.7232 218.984C95.9404 219.086 96.1462 219.212 96.3371 219.357Z" fill="#FAFAFA"/>
<path d="M85.3384 238.299C85.2041 238.386 85.0598 238.457 84.9087 238.509C84.4696 238.66 84.0072 238.733 83.5428 238.724C82.8077 238.703 82.082 238.552 81.3993 238.279C80.5111 237.905 79.6436 237.484 78.8006 237.017C77.7845 236.469 76.6826 236.098 75.5419 235.918C74.2285 235.735 72.8946 235.756 71.5875 235.98C68.7995 236.394 65.9603 237.676 62.8909 238.821C61.3965 239.394 59.8563 239.84 58.2868 240.154C56.8296 240.443 55.3516 240.614 53.8669 240.665C51.3542 240.731 48.8445 240.451 46.4083 239.832C44.7665 239.422 43.172 238.841 41.6507 238.1C41.1034 237.855 40.7043 237.589 40.4281 237.467L40.116 237.288C40.0495 237.247 40.0137 237.221 40.0188 237.216L40.1314 237.262L40.4537 237.415C40.7401 237.548 41.1443 237.778 41.6917 238.008C43.2238 238.704 44.8185 239.253 46.4543 239.649C50.3097 240.594 54.3254 240.687 58.2203 239.919C59.7683 239.603 61.2877 239.161 62.763 238.596C65.7966 237.451 68.6716 236.164 71.5006 235.755C72.8345 235.536 74.1941 235.524 75.5317 235.719C76.6934 235.91 77.8132 236.301 78.8415 236.874C79.6716 237.346 80.5253 237.776 81.3993 238.162C82.0629 238.438 82.7688 238.598 83.4865 238.637C84.1215 238.667 84.755 238.552 85.3384 238.299Z" fill="#FAFAFA"/>
<path d="M84.9036 249.015C84.4849 248.548 84.0336 248.11 83.553 247.707C82.2025 246.651 80.5753 246.007 78.8671 245.852C77.6967 245.741 76.5162 245.881 75.4038 246.261C74.1447 246.75 72.9734 247.441 71.9354 248.305C70.8151 249.194 69.7203 250.236 68.4977 251.228C67.2646 252.304 65.8302 253.125 64.2773 253.645C62.6979 254.082 61.0445 254.187 59.4225 253.951C57.9229 253.736 56.4442 253.394 55.0026 252.929C52.2453 252.086 49.846 251.079 47.7588 250.497C46.1276 249.971 44.4031 249.797 42.6994 249.986C42.0827 250.092 41.4754 250.248 40.8834 250.451L40.9908 250.395L41.3285 250.257C41.5102 250.177 41.6985 250.114 41.8912 250.068C42.1498 249.984 42.415 249.922 42.6841 249.884C44.4018 249.662 46.1472 249.815 47.7997 250.333C49.9125 250.901 52.3118 251.866 55.064 252.715C56.4932 253.167 57.9581 253.499 59.443 253.706C61.0292 253.936 62.646 253.833 64.1903 253.404C65.7099 252.896 67.1144 252.094 68.3237 251.044C69.5362 250.057 70.636 249 71.7717 248.126C72.8347 247.254 74.0342 246.564 75.322 246.082C76.4627 245.695 77.6742 245.56 78.8722 245.688C80.6091 245.861 82.2559 246.543 83.6042 247.651C84.1022 248.039 84.5401 248.499 84.9036 249.015Z" fill="#FAFAFA"/>
<g opacity="0.2">
<path d="M39.3282 246.991C42.3976 247.232 45.1549 245.162 47.4468 243.087C49.7386 241.013 52.1276 238.693 55.1919 238.254C58.3994 237.794 61.6632 239.531 64.84 238.892C66.2724 238.606 67.6075 237.87 69.0655 237.794C71.4699 237.697 73.4854 239.485 75.2043 241.156L81.9467 247.666C82.6373 248.33 83.9521 249.327 84.8115 248.913L84.9803 245.556C83.9009 239.511 82.7294 233.292 78.069 229.296C74.6109 226.322 69.884 225.305 65.372 224.789C59.8829 224.166 53.9385 224.237 49.3293 227.283C46.2599 229.327 44.0858 232.495 42.679 235.888C41.2722 239.281 40.5202 242.924 39.7937 246.532" fill="black"/>
</g>
<path d="M98.3935 229.771C98.5265 230.548 100.737 243.323 100.317 245.877C99.8975 248.432 99.2581 251.718 96.3319 252.914C93.4058 254.11 89.17 252.515 86.7605 248.402C84.3511 244.288 73.997 229.807 73.997 229.807L66.2826 228.877V215.974L81.0413 225.361L87.8246 231.493L87.313 229.449L98.3935 229.771Z" fill="#FFBE9D"/>
<path d="M69.6333 209.132H57.9901C57.0352 209.132 56.261 209.905 56.261 210.859V231.841C56.261 232.794 57.0352 233.568 57.9901 233.568H69.6333C70.5883 233.568 71.3624 232.794 71.3624 231.841V210.859C71.3624 209.905 70.5883 209.132 69.6333 209.132Z" fill="#26364E"/>
<path d="M80.412 225.029C80.4632 224.978 83.6707 227.748 87.5739 231.217C91.4772 234.687 94.6131 237.548 94.5619 237.599C94.5108 237.651 91.3084 234.886 87.4 231.417C83.4917 227.947 80.366 225.085 80.412 225.029Z" fill="#E07646"/>
<path d="M26.3396 230.492C26.3396 230.492 24.4979 246.363 24.4979 248.172C24.4979 249.981 26.1298 254.304 30.6367 254.677C35.1436 255.05 40.9755 244.917 40.9755 244.917L50.3883 230.609L46.2139 222.883L38.08 230.987L26.3396 230.492Z" fill="#FFBE9D"/>
<path d="M68.3596 218.678L56.169 218.34L46.2139 222.883L50.378 230.655L57.6627 229.597C57.6627 229.597 61.9241 228.902 62.185 228.642C62.6965 228.131 63.1058 226.644 63.3974 225.336C63.7005 223.997 63.5512 222.595 62.9728 221.35L62.7016 221.12C62.7016 221.12 66.7123 220.282 67.3773 219.991C68.9683 219.306 68.3596 218.678 68.3596 218.678Z" fill="#FFBE9D"/>
<path d="M46.2139 222.883C46.0751 223.089 45.9176 223.283 45.7433 223.46C45.4261 223.818 44.9554 224.329 44.362 224.952C43.1854 226.199 41.5177 227.886 39.6556 229.725L34.893 234.442L33.4555 235.872C33.2884 236.058 33.1052 236.229 32.9081 236.383C33.0463 236.178 33.2039 235.986 33.3787 235.811C33.6959 235.448 34.1665 234.937 34.76 234.314C35.9366 233.067 37.6043 231.381 39.4664 229.541L44.229 224.825L45.6665 223.394C45.8336 223.208 46.0168 223.037 46.2139 222.883Z" fill="#E07646"/>
<path d="M58.2254 222.29C58.8852 221.751 59.6674 221.383 60.5033 221.217C61.3392 221.051 62.2031 221.094 63.0188 221.34C62.1945 221.317 61.3697 221.363 60.5531 221.478C59.7559 221.683 58.9773 221.955 58.2254 222.29Z" fill="#E07646"/>
<path d="M63.7043 223.649C62.9839 223.505 62.2491 223.445 61.5148 223.471C60.7868 223.581 60.0731 223.771 59.3867 224.038C59.9918 223.563 60.7216 223.274 61.4879 223.205C62.2542 223.136 63.0241 223.29 63.7043 223.649Z" fill="#E07646"/>
<path d="M62.937 225.893C62.9114 225.923 62.7784 225.831 62.5482 225.75C62.2494 225.643 61.9296 225.61 61.6154 225.653C61.3012 225.696 61.0019 225.813 60.7424 225.995C60.5428 226.133 60.4405 226.255 60.4047 226.23C60.3689 226.204 60.4303 226.051 60.6247 225.852C60.8853 225.599 61.2201 225.436 61.5802 225.387C61.9402 225.339 62.3064 225.406 62.6249 225.581C62.8654 225.719 62.9728 225.867 62.937 225.893Z" fill="#E07646"/>
<path d="M62.85 201.631C64.7973 201.522 66.6278 200.668 67.9615 199.246C69.2951 197.825 70.0294 195.945 70.0119 193.997C70.0119 191.57 69.9607 189.49 69.9607 189.49C69.9607 189.49 76.1251 188.529 76.2018 182.377C76.2786 176.224 75.1941 162.075 75.1941 162.075C71.6911 160.571 67.8495 160.028 64.0661 160.502C60.2827 160.976 56.6947 162.451 53.6725 164.773L52.7415 165.494L54.8235 194.62C54.9679 196.609 55.8918 198.46 57.3945 199.773C58.8972 201.086 60.8575 201.753 62.85 201.631Z" fill="#FCC5B6"/>
<path d="M69.9556 189.398C67.1194 189.445 64.333 188.65 61.9496 187.114C61.9496 187.114 63.8476 191.544 69.9966 190.987L69.9556 189.398Z" fill="#F5AB85"/>
<path d="M53.5191 171.866C53.4167 171.825 49.2884 170.619 49.4265 174.824C49.5647 179.03 53.7646 178.028 53.7646 177.916C53.7646 177.803 53.5191 171.866 53.5191 171.866Z" fill="#EB996E"/>
<path d="M52.4243 176.383C52.4243 176.383 52.3527 176.434 52.2299 176.495C52.0582 176.575 51.8621 176.586 51.6825 176.526C51.2323 176.378 50.8333 175.683 50.7873 174.921C50.7666 174.562 50.826 174.203 50.9612 173.869C50.9944 173.738 51.0581 173.617 51.147 173.516C51.2359 173.415 51.3475 173.336 51.4728 173.286C51.5567 173.261 51.6467 173.267 51.7271 173.301C51.8075 173.336 51.8732 173.397 51.9127 173.475C51.9741 173.593 51.9485 173.675 51.9741 173.68C51.9997 173.685 52.0611 173.608 52.0202 173.434C51.9934 173.332 51.932 173.242 51.8462 173.179C51.7879 173.136 51.7217 173.106 51.6514 173.089C51.5811 173.073 51.5082 173.07 51.437 173.082C51.2692 173.122 51.1138 173.203 50.9845 173.317C50.8551 173.431 50.7558 173.575 50.6952 173.736C50.5297 174.106 50.456 174.511 50.4803 174.916C50.5366 175.765 50.9919 176.541 51.6109 176.7C51.7247 176.728 51.8434 176.731 51.9585 176.708C52.0735 176.685 52.182 176.637 52.2759 176.567C52.4192 176.46 52.4396 176.383 52.4243 176.383Z" fill="#E07646"/>
<path d="M73.1734 172.469C73.1762 172.698 73.0887 172.919 72.9299 173.084C72.771 173.25 72.5535 173.346 72.3242 173.353C72.2122 173.362 72.0994 173.35 71.9925 173.315C71.8856 173.28 71.7869 173.224 71.7024 173.15C71.6178 173.076 71.549 172.985 71.5003 172.884C71.4516 172.783 71.4238 172.673 71.4187 172.561C71.4159 172.332 71.5026 172.112 71.6604 171.947C71.8181 171.782 72.0344 171.685 72.2628 171.677C72.3749 171.668 72.4877 171.681 72.5946 171.716C72.7014 171.751 72.8002 171.807 72.885 171.881C72.9698 171.955 73.039 172.045 73.0886 172.146C73.1381 172.247 73.1669 172.357 73.1734 172.469Z" fill="#263238"/>
<path d="M74.0277 170.762C73.9152 170.874 73.2501 170.384 72.3037 170.389C71.3573 170.394 70.6616 170.864 70.5593 170.747C70.457 170.629 70.6207 170.486 70.9225 170.266C71.3329 169.984 71.8205 169.834 72.3191 169.837C72.817 169.822 73.3068 169.967 73.7156 170.251C73.9817 170.486 74.0789 170.696 74.0277 170.762Z" fill="#263238"/>
<path d="M63.6838 172.576C63.6867 172.806 63.5994 173.027 63.4407 173.193C63.2819 173.36 63.0644 173.457 62.8346 173.465C62.7244 173.471 62.6141 173.456 62.5099 173.419C62.4057 173.383 62.3098 173.326 62.2276 173.253C62.1454 173.179 62.0785 173.09 62.0308 172.991C61.9831 172.891 61.9555 172.783 61.9496 172.673C61.9466 172.448 62.0303 172.23 62.1836 172.064C62.3369 171.899 62.548 171.798 62.7733 171.784C62.8854 171.775 62.9982 171.788 63.105 171.824C63.2119 171.859 63.3106 171.915 63.3955 171.989C63.4803 172.062 63.5495 172.152 63.599 172.253C63.6486 172.354 63.6774 172.464 63.6838 172.576Z" fill="#263238"/>
<path d="M64.7172 170.926C64.6098 171.038 63.9447 170.547 62.9984 170.547C62.052 170.547 61.3562 171.023 61.2539 170.905C61.1516 170.788 61.3102 170.65 61.6171 170.43C62.0262 170.144 62.5147 169.994 63.0137 170.001C63.5058 169.998 63.986 170.152 64.3847 170.44C64.6712 170.665 64.7735 170.874 64.7172 170.926Z" fill="#263238"/>
<path d="M68.1549 177.916C68.6536 177.763 69.1688 177.67 69.6896 177.64C69.9301 177.64 70.1603 177.568 70.2012 177.4C70.2204 177.15 70.1633 176.901 70.0375 176.684L69.3213 174.845C68.3289 172.229 67.6127 170.077 67.715 170.036C67.8173 169.996 68.7125 172.08 69.705 174.707C69.9454 175.351 70.1756 175.969 70.3905 176.557C70.5434 176.849 70.5886 177.185 70.5184 177.507C70.4823 177.592 70.4278 177.667 70.3588 177.728C70.2897 177.789 70.2079 177.834 70.1193 177.86C69.9854 177.894 69.8482 177.912 69.7101 177.916C69.1939 177.983 68.6711 177.983 68.1549 177.916Z" fill="#263238"/>
<path d="M65.3669 178.59C65.5204 178.59 65.5255 179.612 66.39 180.338C67.2546 181.064 68.3647 180.956 68.3698 181.099C68.3698 181.161 68.1293 181.299 67.6638 181.309C67.0727 181.309 66.4997 181.105 66.0422 180.731C65.5948 180.367 65.3068 179.843 65.239 179.27C65.1827 178.841 65.3004 178.585 65.3669 178.59Z" fill="#263238"/>
<path d="M64.9628 167.216C64.8707 167.476 63.9396 167.354 62.8142 167.487C61.6887 167.619 60.8037 167.921 60.6554 167.691C60.5889 167.584 60.7475 167.338 61.1107 167.088C61.592 166.781 62.1386 166.59 62.7068 166.531C63.2757 166.462 63.8528 166.53 64.3898 166.73C64.7991 166.894 65.019 167.093 64.9628 167.216Z" fill="#F5AB85"/>
<path d="M73.6798 168.008C73.511 168.222 72.8613 168.008 72.0735 168.008C71.2857 168.008 70.6258 168.151 70.4723 167.926C70.4058 167.819 70.5132 167.604 70.7997 167.415C71.1869 167.177 71.6355 167.057 72.0901 167.071C72.5447 167.084 72.9853 167.231 73.3575 167.492C73.6594 167.696 73.7514 167.906 73.6798 168.008Z" fill="#F5AB85"/>
<path d="M78.1918 158.202C78.2384 157.818 78.1858 157.429 78.0389 157.071C77.892 156.713 77.6558 156.399 77.3529 156.158C77.0434 155.931 76.6628 155.822 76.2799 155.851C75.897 155.88 75.5372 156.045 75.2657 156.316C75.3233 156.059 75.3262 155.792 75.2741 155.533C75.222 155.274 75.1161 155.029 74.9633 154.814C74.8104 154.599 74.614 154.418 74.3867 154.283C74.1595 154.149 73.9065 154.063 73.644 154.032C72.6209 153.971 71.7819 154.727 70.8151 154.993C69.8444 155.197 68.8334 155.081 67.9349 154.661C67.0244 154.298 66.17 153.787 65.2492 153.455C63.3015 152.743 61.1515 152.827 59.2651 153.688C57.3787 154.548 55.9078 156.117 55.1714 158.054C54.4772 157.89 53.7496 157.943 53.0865 158.205C52.4233 158.468 51.8566 158.926 51.4625 159.52C50.6763 160.709 50.3625 162.149 50.5827 163.557C50.7133 164.5 50.9501 165.426 51.2886 166.316C51.2886 166.398 51.2886 166.475 51.2886 166.551C51.3551 169.939 51.7388 173.915 53.1814 173.935C55.7034 173.971 55.0998 169.234 55.0998 169.234C58.1692 168.038 57.0437 163.409 57.8162 162.709C58.5887 162.009 60.2052 160.374 66.6765 163.68C69.1934 164.962 72.5339 164.926 74.35 164.513L74.5086 164.477H74.5495H74.6006C75.1941 164.313 75.7584 164.058 76.2735 163.721C76.8798 163.367 77.3581 162.83 77.6393 162.188C77.7731 161.867 77.811 161.514 77.7483 161.172C77.6857 160.83 77.5252 160.514 77.2864 160.261C77.7839 159.678 78.0988 158.962 78.1918 158.202Z" fill="#2F4362"/>
<rect x="105" y="228" width="117" height="226" fill="white"/>
<path d="M214.67 456.714H112.092C109.682 456.712 107.371 455.754 105.666 454.052C103.962 452.35 103.003 450.042 103 447.635V233.908C103.003 231.501 103.962 229.193 105.666 227.491C107.371 225.789 109.682 224.832 112.092 224.829H214.67C217.08 224.832 219.391 225.789 221.095 227.491C222.8 229.193 223.759 231.501 223.762 233.908V447.635C223.759 450.042 222.8 452.35 221.095 454.052C219.391 455.754 217.08 456.712 214.67 456.714ZM112.092 227.906C110.499 227.908 108.972 228.54 107.845 229.665C106.719 230.79 106.085 232.315 106.083 233.906V447.635C106.085 449.226 106.719 450.751 107.845 451.876C108.972 453.001 110.499 453.634 112.092 453.635H214.67C216.263 453.634 217.79 453.001 218.917 451.876C220.043 450.751 220.677 449.226 220.679 447.635V233.908C220.677 232.317 220.043 230.792 218.917 229.667C217.79 228.542 216.263 227.91 214.67 227.908L112.092 227.906Z" fill="#2F4362"/>
<path d="M180.941 234.946H147.272C146.801 234.946 146.35 234.759 146.018 234.427C145.685 234.095 145.498 233.644 145.498 233.174C145.498 232.704 145.685 232.254 146.018 231.922C146.35 231.589 146.801 231.403 147.272 231.403H180.941C181.411 231.403 181.862 231.589 182.195 231.922C182.528 232.254 182.715 232.704 182.715 233.174C182.715 233.644 182.528 234.095 182.195 234.427C181.862 234.759 181.411 234.946 180.941 234.946ZM147.272 231.826C146.914 231.826 146.571 231.968 146.318 232.221C146.065 232.473 145.923 232.816 145.923 233.173C145.923 233.531 146.065 233.873 146.318 234.126C146.571 234.378 146.914 234.52 147.272 234.52H180.941C181.299 234.52 181.642 234.378 181.895 234.126C182.148 233.873 182.29 233.531 182.29 233.173C182.29 232.816 182.148 232.473 181.895 232.221C181.642 231.968 181.299 231.826 180.941 231.826H147.272Z" fill="#263238"/>
<path d="M223.689 287.481C223.255 287.479 222.838 287.305 222.531 286.998C222.224 286.69 222.052 286.274 222.052 285.839V271.282C222.046 271.063 222.085 270.845 222.165 270.641C222.245 270.438 222.365 270.252 222.519 270.095C222.672 269.939 222.855 269.814 223.057 269.729C223.259 269.644 223.476 269.6 223.695 269.6C223.914 269.6 224.131 269.644 224.333 269.729C224.535 269.814 224.718 269.939 224.871 270.095C225.024 270.252 225.144 270.438 225.224 270.641C225.305 270.845 225.343 271.063 225.338 271.282V285.839C225.338 286.055 225.295 286.269 225.212 286.468C225.129 286.668 225.007 286.849 224.854 287.001C224.701 287.154 224.519 287.275 224.32 287.357C224.12 287.439 223.906 287.481 223.689 287.481ZM223.689 270.065C223.366 270.066 223.056 270.194 222.828 270.423C222.599 270.651 222.47 270.961 222.47 271.283V285.841C222.479 286.159 222.611 286.46 222.839 286.681C223.067 286.902 223.372 287.026 223.69 287.026C224.008 287.026 224.313 286.902 224.541 286.681C224.769 286.46 224.901 286.159 224.91 285.841V271.283C224.911 271.123 224.88 270.964 224.819 270.815C224.758 270.667 224.668 270.532 224.554 270.418C224.441 270.304 224.306 270.214 224.158 270.152C224.009 270.091 223.85 270.059 223.689 270.059V270.065Z" fill="#263238"/>
<path d="M223.689 319.638C223.255 319.636 222.838 319.463 222.531 319.155C222.224 318.847 222.052 318.431 222.052 317.997V293.693C222.046 293.474 222.085 293.256 222.165 293.053C222.245 292.849 222.365 292.663 222.519 292.507C222.672 292.35 222.855 292.225 223.057 292.14C223.259 292.055 223.476 292.012 223.695 292.012C223.914 292.012 224.131 292.055 224.333 292.14C224.535 292.225 224.718 292.35 224.871 292.507C225.024 292.663 225.144 292.849 225.224 293.053C225.305 293.256 225.343 293.474 225.338 293.693V317.997C225.338 318.213 225.295 318.426 225.212 318.626C225.129 318.825 225.007 319.006 224.854 319.159C224.701 319.311 224.519 319.432 224.32 319.514C224.12 319.596 223.906 319.639 223.689 319.638ZM223.689 292.475C223.366 292.475 223.056 292.604 222.828 292.832C222.599 293.06 222.47 293.37 222.47 293.693V317.997C222.479 318.314 222.611 318.615 222.839 318.837C223.067 319.058 223.372 319.182 223.69 319.182C224.008 319.182 224.313 319.058 224.541 318.837C224.769 318.615 224.901 318.314 224.91 317.997V293.693C224.91 293.37 224.781 293.06 224.552 292.832C224.323 292.603 224.013 292.475 223.689 292.475Z" fill="#263238"/>
<path d="M123.18 254.829H200.236C204.333 254.829 208.261 256.454 211.158 259.347C214.055 262.24 215.682 266.164 215.682 270.255V280.827H123.18C119.727 280.827 116.417 279.458 113.976 277.02C111.535 274.582 110.163 271.276 110.163 267.828C110.163 264.381 111.535 261.074 113.976 258.636C116.417 256.199 119.727 254.829 123.18 254.829Z" fill="#8BA2C4" fill-opacity="0.1"/>
<path d="M202.666 316.004H110.163V305.433C110.163 303.407 110.563 301.401 111.339 299.53C112.115 297.658 113.253 295.958 114.687 294.525C116.122 293.093 117.824 291.957 119.698 291.181C121.573 290.406 123.581 290.007 125.609 290.007H202.666C206.118 290.007 209.429 291.377 211.87 293.815C214.311 296.252 215.682 299.559 215.682 303.006C215.682 306.454 214.31 309.759 211.869 312.197C209.428 314.634 206.118 316.004 202.666 316.004Z" fill="#8BA2C4" fill-opacity="0.1"/>
<path d="M187.48 262.577H121.705C121.451 262.577 121.209 262.524 121.03 262.43C120.851 262.336 120.75 262.209 120.75 262.077C120.75 261.944 120.85 261.817 121.029 261.723C121.208 261.629 121.451 261.577 121.705 261.577H187.48C187.733 261.577 187.976 261.629 188.155 261.723C188.334 261.817 188.435 261.944 188.435 262.077C188.434 262.209 188.334 262.336 188.155 262.43C187.976 262.524 187.733 262.577 187.48 262.577Z" fill="#7B94BA" fill-opacity="0.2"/>
<path d="M164.864 266.257H121.527C121.098 266.257 120.75 266.439 120.75 266.664V266.849C120.75 267.074 121.098 267.257 121.527 267.257H164.864C165.293 267.257 165.641 267.074 165.641 266.849V266.664C165.641 266.439 165.293 266.257 164.864 266.257Z" fill="#7B94BA" fill-opacity="0.2"/>
<path d="M176.683 270.936H121.625C121.141 270.936 120.75 271.141 120.75 271.394V271.477C120.75 271.73 121.141 271.936 121.625 271.936H176.683C177.166 271.936 177.558 271.73 177.558 271.477V271.394C177.558 271.141 177.166 270.936 176.683 270.936Z" fill="#7B94BA" fill-opacity="0.2"/>
<path d="M123.18 327.829H200.236C204.333 327.829 208.261 329.454 211.158 332.347C214.055 335.24 215.682 339.164 215.682 343.255V353.827H123.18C119.727 353.827 116.417 352.458 113.976 350.02C111.535 347.582 110.163 344.276 110.163 340.828C110.163 337.381 111.535 334.074 113.976 331.636C116.417 329.199 119.727 327.829 123.18 327.829Z" fill="#8BA2C4" fill-opacity="0.1"/>
<path d="M117.937 332.815C120.526 332.815 122.624 330.72 122.624 328.135C122.624 325.55 120.526 323.455 117.937 323.455C115.349 323.455 113.251 325.55 113.251 328.135C113.251 330.72 115.349 332.815 117.937 332.815Z" fill="#FFB534"/>
<path d="M117.937 257.937C120.526 257.937 122.624 255.842 122.624 253.257C122.624 250.672 120.526 248.577 117.937 248.577C115.349 248.577 113.251 250.672 113.251 253.257C113.251 255.842 115.349 257.937 117.937 257.937Z" fill="#FFB534"/>
<path d="M187.48 336.108H121.705C121.451 336.108 121.208 336.055 121.029 335.962C120.85 335.868 120.75 335.74 120.75 335.608C120.75 335.475 120.851 335.348 121.03 335.254C121.209 335.161 121.451 335.108 121.705 335.108H187.48C187.733 335.108 187.976 335.161 188.155 335.254C188.334 335.348 188.434 335.475 188.435 335.608C188.435 335.74 188.334 335.868 188.155 335.962C187.976 336.055 187.733 336.108 187.48 336.108Z" fill="#DBE2EC"/>
<path d="M164.864 339.787H121.527C121.098 339.787 120.75 339.97 120.75 340.195V340.38C120.75 340.605 121.098 340.787 121.527 340.787H164.864C165.293 340.787 165.641 340.605 165.641 340.38V340.195C165.641 339.97 165.293 339.787 164.864 339.787Z" fill="#DBE2EC"/>
<path d="M176.683 344.467H121.625C121.141 344.467 120.75 344.672 120.75 344.926V345.009C120.75 345.262 121.141 345.467 121.625 345.467H176.683C177.166 345.467 177.558 345.262 177.558 345.009V344.926C177.558 344.672 177.166 344.467 176.683 344.467Z" fill="#DBE2EC"/>
<path d="M187.48 303.135H121.705C121.451 303.135 121.208 303.082 121.029 302.988C120.85 302.894 120.75 302.767 120.75 302.634C120.75 302.502 120.851 302.375 121.03 302.281C121.209 302.187 121.451 302.135 121.705 302.135H187.48C187.733 302.135 187.976 302.187 188.155 302.281C188.334 302.375 188.434 302.502 188.435 302.634C188.435 302.767 188.334 302.894 188.155 302.988C187.976 303.082 187.733 303.135 187.48 303.135Z" fill="#DBE2EC"/>
<path d="M165.211 297.108H121.875C121.446 297.108 121.098 297.291 121.098 297.516V297.701C121.098 297.926 121.446 298.108 121.875 298.108H165.211C165.641 298.108 165.989 297.926 165.989 297.701V297.516C165.989 297.291 165.641 297.108 165.211 297.108Z" fill="#DBE2EC"/>
<path d="M176.683 306.988H121.625C121.141 306.988 120.75 307.193 120.75 307.446V307.53C120.75 307.783 121.141 307.988 121.625 307.988H176.683C177.166 307.988 177.558 307.783 177.558 307.53V307.446C177.558 307.193 177.166 306.988 176.683 306.988Z" fill="#DBE2EC"/>
<path d="M123 412H112V422H123V412Z" fill="#F3F6F9"/>
<path d="M135 412H125V422H135V412Z" fill="#F3F6F9"/>
<path d="M148 412H137V422H148V412Z" fill="#F3F6F9"/>
<path d="M161 412H150V422H161V412Z" fill="#F3F6F9"/>
<path d="M173 412H163V422H173V412Z" fill="#F3F6F9"/>
<path d="M123 438H112V449H123V438Z" fill="#F3F6F9"/>
<path d="M179 438H125V449H179V438Z" fill="#F3F6F9"/>
<path d="M211.917 407.927C211.917 407.927 211.917 407.663 211.917 407.155C211.917 406.646 211.917 405.893 211.917 404.903C211.917 402.921 211.917 399.989 211.869 396.172L211.952 396.251L112.221 396.343L112.401 396.172V407.927L112.221 407.762L183.092 407.835L204.229 407.881H209.955H211.447H211.917C211.917 407.881 211.758 407.881 211.427 407.881H209.962H204.277L183.182 407.927L112.18 408H112V396H112.186L211.917 396.099H212V396.145C212 399.982 211.965 402.921 211.952 404.922C211.952 405.9 211.952 406.646 211.952 407.161C211.917 407.683 211.917 407.927 211.917 407.927Z" fill="#263238"/>
<path d="M204.8 398H204.2C203.537 398 203 398.451 203 399.007V401.993C203 402.549 203.537 403 204.2 403H204.8C205.463 403 206 402.549 206 401.993V399.007C206 398.451 205.463 398 204.8 398Z" fill="#3471D3"/>
<path d="M207 402.119C206.76 402.214 206.508 402.253 206.257 402.235L206.352 402.134C206.324 402.766 206.161 403.377 205.879 403.906C205.691 404.257 205.433 404.543 205.13 404.737C204.793 404.937 204.42 405.025 204.047 404.994C203.707 404.975 203.376 404.861 203.078 404.659C202.78 404.456 202.523 404.172 202.328 403.828C202.038 403.327 201.844 402.75 201.762 402.142L201.856 402.243C201.567 402.261 201.278 402.219 201 402.119C201.279 402.029 201.568 401.99 201.856 402.002H201.932V402.111C202.064 402.657 202.278 403.168 202.561 403.619C202.739 403.908 202.965 404.146 203.225 404.315C203.485 404.484 203.772 404.581 204.066 404.598C204.383 404.624 204.701 404.555 204.992 404.396C205.243 404.234 205.459 403.999 205.621 403.712C205.891 403.237 206.07 402.692 206.144 402.119V402.01H206.219C206.483 401.992 206.746 402.029 207 402.119Z" fill="#3471D3"/>
<path d="M204.5 405C204.769 405 205 405.225 205 405.502C205 405.78 204.769 406 204.5 406C204.231 406 204 405.78 204 405.502C204 405.225 204.212 405 204.5 405Z" fill="#3471D3"/>
<path d="M192 438H181V449H192V438Z" fill="#F3F6F9"/>
<path d="M212 438H194V449H212V438Z" fill="#3471D3"/>
<path d="M186 412H176V422H186V412Z" fill="#F3F6F9"/>
<path d="M199 412H188V422H199V412Z" fill="#F3F6F9"/>
<path d="M212 412H201V422H212V412Z" fill="#F3F6F9"/>
<path d="M123 425H112V435H123V425Z" fill="#F3F6F9"/>
<path d="M135 425H125V435H135V425Z" fill="#F3F6F9"/>
<path d="M148 425H137V435H148V425Z" fill="#F3F6F9"/>
<path d="M161 425H150V435H161V425Z" fill="#F3F6F9"/>
<path d="M173 425H163V435H173V425Z" fill="#F3F6F9"/>
<path d="M186 425H176V435H186V425Z" fill="#F3F6F9"/>
<path d="M199 425H188V435H199V425Z" fill="#F3F6F9"/>
<path d="M212 425H201V435H212V425Z" fill="#F3F6F9"/>
<path d="M41.2846 68H49.5692V76.3129H41.2846V68Z" fill="#FFB534"/>
<path d="M33 76.3129H41.2846V84.6259H33V76.3129Z" fill="#3471D3"/>
<path d="M297.069 140.667C296.241 140.667 295.569 139.995 295.569 139.167C295.569 138.338 296.241 137.667 297.069 137.667C297.898 137.667 298.569 138.338 298.569 139.167C298.569 139.995 297.898 140.667 297.069 140.667Z" stroke="#95A8BD" stroke-miterlimit="10"/>
<path d="M297.069 153.223C296.241 153.223 295.569 152.552 295.569 151.723C295.569 150.895 296.241 150.223 297.069 150.223C297.898 150.223 298.569 150.895 298.569 151.723C298.569 152.552 297.898 153.223 297.069 153.223Z" stroke="#95A8BD" stroke-miterlimit="10"/>
<path d="M297.069 165.777C296.241 165.777 295.569 165.105 295.569 164.277C295.569 163.448 296.241 162.777 297.069 162.777C297.898 162.777 298.569 163.448 298.569 164.277C298.569 165.105 297.898 165.777 297.069 165.777Z" stroke="#95A8BD" stroke-miterlimit="10"/>
<path d="M297.069 178.333C296.241 178.333 295.569 177.662 295.569 176.833C295.569 176.005 296.241 175.333 297.069 175.333C297.898 175.333 298.569 176.005 298.569 176.833C298.569 177.662 297.898 178.333 297.069 178.333Z" stroke="#95A8BD" stroke-miterlimit="10"/>
<path d="M231.281 6.5311L236.908 0.90387L243.473 7.46897L237.846 13.0962L231.281 6.5311Z" fill="#FFB534"/>
<path d="M41.3769 287.565L47.942 281L53.5692 286.627L47.0041 293.192L41.3769 287.565Z" fill="#CFDEF5"/>
</svg>
