<svg width="22" height="22" viewBox="0 0 22 22" fill="none" xmlns="http://www.w3.org/2000/svg">
<path d="M13.9698 20.4143H13.8506C9.78064 20.4143 7.81898 18.8101 7.47981 15.2168C7.44314 14.8409 7.71814 14.5018 8.10314 14.4651C8.47898 14.4284 8.81814 14.7126 8.85481 15.0884C9.12064 17.9668 10.4773 19.0393 13.8598 19.0393H13.979C17.7098 19.0393 19.0298 17.7193 19.0298 13.9884V8.01177C19.0298 4.28094 17.7098 2.96094 13.979 2.96094H13.8598C10.459 2.96094 9.10231 4.05177 8.85481 6.9851C8.80898 7.36094 8.49731 7.6451 8.10314 7.60844C7.71814 7.58094 7.44314 7.24177 7.47064 6.86594C7.78231 3.2176 9.75314 1.58594 13.8506 1.58594H13.9698C18.4706 1.58594 20.3956 3.51094 20.3956 8.01177V13.9884C20.3956 18.4893 18.4706 20.4143 13.9698 20.4143Z" fill="#010D21"/>
<path d="M13.6402 11.6875H1.8335C1.45766 11.6875 1.146 11.3758 1.146 11C1.146 10.6242 1.45766 10.3125 1.8335 10.3125H13.6402C14.016 10.3125 14.3277 10.6242 14.3277 11C14.3277 11.3758 14.0252 11.6875 13.6402 11.6875Z" fill="#010D21"/>
<path d="M11.5959 14.7583C11.4217 14.7583 11.2475 14.6941 11.11 14.5566C10.8442 14.2908 10.8442 13.8508 11.11 13.5849L13.695 10.9999L11.11 8.41494C10.8442 8.14911 10.8442 7.7091 11.11 7.44327C11.3759 7.17744 11.8159 7.17744 12.0817 7.44327L15.1525 10.5141C15.4184 10.7799 15.4184 11.2199 15.1525 11.4858L12.0817 14.5566C11.9442 14.6941 11.77 14.7583 11.5959 14.7583Z" fill="#010D21"/>
</svg>
