<svg width="24" height="24" viewBox="0 0 24 24" fill="none" xmlns="http://www.w3.org/2000/svg">
<path d="M14 5C14 3.9 13.1 3 12 3C10.9 3 10 3.9 10 5C10 6.1 10.9 7 12 7C13.1 7 14 6.1 14 5Z" stroke="#010D21"/>
<path d="M14 19.0005C14 17.9005 13.1 17.0005 12 17.0005C10.9 17.0005 10 17.9005 10 19.0005C10 20.1005 10.9 21.0005 12 21.0005C13.1 21.0005 14 20.1005 14 19.0005Z" stroke="#010D21"/>
<path d="M14 11.9995C14 10.8995 13.1 9.99951 12 9.99951C10.9 9.99951 10 10.8995 10 11.9995C10 13.0995 10.9 13.9995 12 13.9995C13.1 13.9995 14 13.0995 14 11.9995Z" stroke="#010D21"/>
</svg>
