<svg width="22" height="22" viewBox="0 0 22 22" fill="none" xmlns="http://www.w3.org/2000/svg">
<path d="M15.125 11.4307C14.7492 11.4307 14.4375 11.119 14.4375 10.7432V9.12075C14.4375 8.68992 14.0892 8.34155 13.6583 8.34155H6.875C6.49917 8.34155 6.1875 8.02989 6.1875 7.65405C6.1875 7.27822 6.49917 6.96655 6.875 6.96655H13.6583C14.85 6.96655 15.8125 7.93825 15.8125 9.12075V10.7432C15.8125 11.119 15.5008 11.4307 15.125 11.4307Z" fill="#010D21"/>
<path d="M8.42432 9.88172C8.25015 9.88172 8.07599 9.81752 7.93849 9.68002L6.38932 8.13085C6.12348 7.86502 6.12348 7.42502 6.38932 7.15919L7.93849 5.61002C8.20432 5.34419 8.64432 5.34419 8.91015 5.61002C9.17598 5.87585 9.17598 6.31585 8.91015 6.58168L7.84681 7.64505L8.91015 8.70836C9.17598 8.97419 9.17598 9.41419 8.91015 9.68002C8.77265 9.81752 8.59848 9.88172 8.42432 9.88172Z" fill="#010D21"/>
<path d="M15.125 15.0425H8.34167C7.15001 15.0425 6.1875 14.0709 6.1875 12.8884V11.2659C6.1875 10.89 6.49917 10.5784 6.875 10.5784C7.25083 10.5784 7.5625 10.89 7.5625 11.2659V12.8884C7.5625 13.3192 7.91084 13.6675 8.34167 13.6675H15.125C15.5008 13.6675 15.8125 13.9792 15.8125 14.355C15.8125 14.7309 15.5008 15.0425 15.125 15.0425Z" fill="#010D21"/>
<path d="M13.5758 16.5824C13.4017 16.5824 13.2275 16.5182 13.09 16.3807C12.8242 16.1149 12.8242 15.6749 13.09 15.409L14.1533 14.3457L13.09 13.2824C12.8242 13.0165 12.8242 12.5765 13.09 12.3107C13.3558 12.0449 13.7958 12.0449 14.0617 12.3107L15.6108 13.8599C15.8767 14.1257 15.8767 14.5657 15.6108 14.8315L14.0617 16.3807C13.9333 16.5182 13.75 16.5824 13.5758 16.5824Z" fill="#010D21"/>
<path d="M11.0002 20.8541C5.56433 20.8541 1.146 16.4358 1.146 10.9999C1.146 5.56409 5.56433 1.14575 11.0002 1.14575C16.436 1.14575 20.8543 5.56409 20.8543 10.9999C20.8543 16.4358 16.436 20.8541 11.0002 20.8541ZM11.0002 2.52075C6.32516 2.52075 2.521 6.32492 2.521 10.9999C2.521 15.6749 6.32516 19.4791 11.0002 19.4791C15.6752 19.4791 19.4793 15.6749 19.4793 10.9999C19.4793 6.32492 15.6752 2.52075 11.0002 2.52075Z" fill="#010D21"/>
</svg>
