<svg width="20" height="20" viewBox="0 0 20 20" fill="none" xmlns="http://www.w3.org/2000/svg">
<path d="M14.7166 18.8918C14.2749 18.8918 13.7083 18.7501 12.9999 18.3334L10.5083 16.8584C10.2499 16.7084 9.74994 16.7084 9.49994 16.8584L6.99994 18.3334C5.52493 19.2084 4.65827 18.8584 4.2666 18.5751C3.88327 18.2918 3.28327 17.5668 3.67494 15.9001L4.2666 13.3418C4.33327 13.0751 4.19994 12.6168 3.99994 12.4168L1.93327 10.3501C0.899935 9.31676 0.983269 8.43343 1.12494 8.0001C1.2666 7.56676 1.7166 6.8001 3.14994 6.55843L5.80827 6.11676C6.05827 6.0751 6.4166 5.80843 6.52494 5.58343L7.99994 2.64176C8.6666 1.3001 9.5416 1.1001 9.99994 1.1001C10.4583 1.1001 11.3333 1.3001 11.9999 2.64176L13.4666 5.5751C13.5833 5.8001 13.9416 6.06676 14.1916 6.10843L16.8499 6.5501C18.2916 6.79176 18.7416 7.55843 18.8749 7.99176C19.0083 8.4251 19.0916 9.30843 18.0666 10.3418L15.9999 12.4168C15.7999 12.6168 15.6749 13.0668 15.7333 13.3418L16.3249 15.9001C16.7083 17.5668 16.1166 18.2918 15.7333 18.5751C15.5249 18.7251 15.1916 18.8918 14.7166 18.8918ZM9.99994 15.4918C10.4083 15.4918 10.8166 15.5918 11.1416 15.7834L13.6333 17.2584C14.3583 17.6918 14.8166 17.6918 14.9916 17.5668C15.1666 17.4418 15.2916 17.0001 15.1083 16.1834L14.5166 13.6251C14.3583 12.9334 14.6166 12.0418 15.1166 11.5334L17.1833 9.46676C17.5916 9.05843 17.7749 8.65843 17.6916 8.38343C17.5999 8.10843 17.2166 7.88343 16.6499 7.79176L13.9916 7.3501C13.3499 7.24176 12.6499 6.7251 12.3583 6.14176L10.8916 3.20843C10.6249 2.6751 10.2916 2.35843 9.99994 2.35843C9.70827 2.35843 9.37494 2.6751 9.1166 3.20843L7.6416 6.14176C7.34994 6.7251 6.64994 7.24176 6.00827 7.3501L3.35827 7.79176C2.7916 7.88343 2.40827 8.10843 2.3166 8.38343C2.22494 8.65843 2.4166 9.06676 2.82494 9.46676L4.8916 11.5334C5.3916 12.0334 5.64994 12.9334 5.4916 13.6251L4.89994 16.1834C4.70827 17.0084 4.8416 17.4418 5.0166 17.5668C5.1916 17.6918 5.6416 17.6834 6.37494 17.2584L8.8666 15.7834C9.18327 15.5918 9.5916 15.4918 9.99994 15.4918Z" fill="#010D21"/>
</svg>
