<svg width="22" height="22" viewBox="0 0 22 22" fill="none" xmlns="http://www.w3.org/2000/svg">
<path d="M10.9998 17.6459C7.33317 17.6459 4.354 14.6667 4.354 11.0001C4.354 7.33342 7.33317 4.35425 10.9998 4.35425C14.6665 4.35425 17.6457 7.33342 17.6457 11.0001C17.6457 14.6667 14.6665 17.6459 10.9998 17.6459ZM10.9998 5.72925C8.094 5.72925 5.729 8.09425 5.729 11.0001C5.729 13.9059 8.094 16.2709 10.9998 16.2709C13.9057 16.2709 16.2707 13.9059 16.2707 11.0001C16.2707 8.09425 13.9057 5.72925 10.9998 5.72925Z" fill="#010D21"/>
<path d="M10.9998 21.0467C10.4957 21.0467 10.0832 20.6709 10.0832 20.1667V20.0934C10.0832 19.5892 10.4957 19.1767 10.9998 19.1767C11.504 19.1767 11.9165 19.5892 11.9165 20.0934C11.9165 20.5976 11.504 21.0467 10.9998 21.0467ZM17.5448 18.4617C17.3065 18.4617 17.0773 18.3701 16.894 18.1959L16.7748 18.0767C16.4173 17.7192 16.4173 17.1417 16.7748 16.7842C17.1323 16.4267 17.7098 16.4267 18.0673 16.7842L18.1865 16.9034C18.544 17.2609 18.544 17.8384 18.1865 18.1959C18.0123 18.3701 17.7832 18.4617 17.5448 18.4617ZM4.45484 18.4617C4.2165 18.4617 3.98734 18.3701 3.804 18.1959C3.4465 17.8384 3.4465 17.2609 3.804 16.9034L3.92317 16.7842C4.28067 16.4267 4.85817 16.4267 5.21567 16.7842C5.57317 17.1417 5.57317 17.7192 5.21567 18.0767L5.0965 18.1959C4.92234 18.3701 4.684 18.4617 4.45484 18.4617ZM20.1665 11.9167H20.0932C19.589 11.9167 19.1765 11.5042 19.1765 11.0001C19.1765 10.4959 19.589 10.0834 20.0932 10.0834C20.5973 10.0834 21.0465 10.4959 21.0465 11.0001C21.0465 11.5042 20.6707 11.9167 20.1665 11.9167ZM1.9065 11.9167H1.83317C1.329 11.9167 0.916504 11.5042 0.916504 11.0001C0.916504 10.4959 1.329 10.0834 1.83317 10.0834C2.33734 10.0834 2.7865 10.4959 2.7865 11.0001C2.7865 11.5042 2.41067 11.9167 1.9065 11.9167ZM17.4257 5.49091C17.1873 5.49091 16.9582 5.39925 16.7748 5.22508C16.4173 4.86758 16.4173 4.29008 16.7748 3.93258L16.894 3.81341C17.2515 3.45591 17.829 3.45591 18.1865 3.81341C18.544 4.17091 18.544 4.74841 18.1865 5.10592L18.0673 5.22508C17.8932 5.39925 17.664 5.49091 17.4257 5.49091ZM4.574 5.49091C4.33567 5.49091 4.1065 5.39925 3.92317 5.22508L3.804 5.09675C3.4465 4.73925 3.4465 4.16175 3.804 3.80425C4.1615 3.44675 4.739 3.44675 5.0965 3.80425L5.21567 3.92341C5.57317 4.28092 5.57317 4.85841 5.21567 5.21591C5.0415 5.39925 4.80317 5.49091 4.574 5.49091ZM10.9998 2.78675C10.4957 2.78675 10.0832 2.41091 10.0832 1.90675V1.83341C10.0832 1.32925 10.4957 0.916748 10.9998 0.916748C11.504 0.916748 11.9165 1.32925 11.9165 1.83341C11.9165 2.33758 11.504 2.78675 10.9998 2.78675Z" fill="#010D21"/>
</svg>
