<svg width="20" height="20" viewBox="0 0 20 20" fill="none" xmlns="http://www.w3.org/2000/svg">
<path d="M17.5001 5.60839C17.4834 5.60839 17.4584 5.60839 17.4334 5.60839C13.0251 5.16673 8.62505 5.00006 4.26672 5.44173L2.56672 5.60839C2.21672 5.64173 1.90839 5.39173 1.87505 5.04173C1.84172 4.69173 2.09172 4.39173 2.43339 4.35839L4.13339 4.19173C8.56672 3.74173 13.0584 3.91673 17.5584 4.35839C17.9001 4.39173 18.1501 4.70006 18.1167 5.04173C18.0917 5.36673 17.8167 5.60839 17.5001 5.60839Z" fill="#010D21"/>
<path d="M7.08314 4.76675C7.0498 4.76675 7.01647 4.76675 6.9748 4.75842C6.64147 4.70008 6.40814 4.37508 6.46647 4.04175L6.6498 2.95008C6.78314 2.15008 6.96647 1.04175 8.90814 1.04175H11.0915C13.0415 1.04175 13.2248 2.19175 13.3498 2.95841L13.5331 4.04175C13.5915 4.38341 13.3581 4.70842 13.0248 4.75842C12.6831 4.81675 12.3581 4.58342 12.3081 4.25008L12.1248 3.16675C12.0081 2.44175 11.9831 2.30008 11.0998 2.30008H8.91647C8.03314 2.30008 8.01647 2.41675 7.89147 3.15841L7.6998 4.24175C7.6498 4.55008 7.38314 4.76675 7.08314 4.76675Z" fill="#010D21"/>
<path d="M12.675 18.9584H7.325C4.41666 18.9584 4.3 17.3501 4.20833 16.0501L3.66666 7.6584C3.64166 7.31673 3.90833 7.01673 4.25 6.99173C4.6 6.97506 4.89166 7.2334 4.91666 7.57506L5.45833 15.9667C5.55 17.2334 5.58333 17.7084 7.325 17.7084H12.675C14.425 17.7084 14.4583 17.2334 14.5417 15.9667L15.0833 7.57506C15.1083 7.2334 15.4083 6.97506 15.75 6.99173C16.0917 7.01673 16.3583 7.3084 16.3333 7.6584L15.7917 16.0501C15.7 17.3501 15.5833 18.9584 12.675 18.9584Z" fill="#010D21"/>
<path d="M11.3834 14.375H8.6084C8.26673 14.375 7.9834 14.0917 7.9834 13.75C7.9834 13.4083 8.26673 13.125 8.6084 13.125H11.3834C11.7251 13.125 12.0084 13.4083 12.0084 13.75C12.0084 14.0917 11.7251 14.375 11.3834 14.375Z" fill="#010D21"/>
<path d="M12.0832 11.0417H7.9165C7.57484 11.0417 7.2915 10.7584 7.2915 10.4167C7.2915 10.0751 7.57484 9.79175 7.9165 9.79175H12.0832C12.4248 9.79175 12.7082 10.0751 12.7082 10.4167C12.7082 10.7584 12.4248 11.0417 12.0832 11.0417Z" fill="#010D21"/>
</svg>
