<svg width="20" height="20" viewBox="0 0 20 20" fill="none" xmlns="http://www.w3.org/2000/svg">
<path d="M10.0001 18.9667C9.09176 18.9667 8.19176 18.7 7.48343 18.175L6.15843 17.1833C5.88343 16.975 5.8251 16.5833 6.03343 16.3083C6.24176 16.0333 6.63343 15.975 6.90843 16.1833L8.23343 17.175C9.19176 17.8917 10.8168 17.8917 11.7751 17.175L15.3584 14.5C15.9918 14.025 16.5418 12.9167 16.5418 12.1333V5.93335C16.5418 5.59168 16.8251 5.30835 17.1668 5.30835C17.5084 5.30835 17.7918 5.59168 17.7918 5.93335V12.125C17.7918 13.3083 17.0501 14.7833 16.1001 15.4917L12.5168 18.1667C11.8084 18.7 10.9084 18.9667 10.0001 18.9667Z" fill="#010D21"/>
<path d="M4.44183 15.75C4.3085 15.75 4.1835 15.7083 4.06683 15.625L3.90016 15.5C2.95016 14.7916 2.2085 13.3083 2.2085 12.1333V5.93328C2.2085 4.64995 3.15016 3.28328 4.3585 2.83328L8.51683 1.27495C9.34183 0.966618 10.6418 0.966618 11.4668 1.27495L15.6335 2.83328C15.8085 2.89995 15.9752 2.98328 16.1418 3.08328C16.4335 3.26662 16.5252 3.64995 16.3418 3.94162C16.1585 4.23328 15.7752 4.32495 15.4835 4.14162C15.3918 4.08328 15.3002 4.03328 15.2002 3.99995L11.0335 2.44162C10.4835 2.23328 9.5085 2.23328 8.9585 2.44162L4.80016 4.00828C4.0835 4.27495 3.4585 5.17495 3.4585 5.94162V12.1333C3.4585 12.925 4.01683 14.0333 4.64183 14.5L4.8085 14.6249C5.0835 14.8333 5.14183 15.225 4.9335 15.5C4.82516 15.6583 4.6335 15.75 4.44183 15.75Z" fill="#010D21"/>
<path d="M1.66686 18.9583C1.50853 18.9583 1.3502 18.9 1.2252 18.775C0.983529 18.5333 0.983529 18.1333 1.2252 17.8916L17.8919 1.22495C18.1335 0.983285 18.5335 0.983285 18.7752 1.22495C19.0169 1.46662 19.0169 1.86662 18.7752 2.10828L2.10853 18.775C1.98353 18.9 1.8252 18.9583 1.66686 18.9583Z" fill="#010D21"/>
</svg>
