<svg width="20" height="20" viewBox="0 0 20 20" fill="none" xmlns="http://www.w3.org/2000/svg">
<path d="M10.7332 17.3834H5.67484C2.7165 17.3834 1.6665 15.3084 1.6665 13.375V6.62503C1.6665 3.7417 2.7915 2.6167 5.67484 2.6167H10.7332C13.6165 2.6167 14.7415 3.7417 14.7415 6.62503V13.375C14.7415 16.2584 13.6165 17.3834 10.7332 17.3834ZM5.67484 3.88337C3.49984 3.88337 2.93317 4.45003 2.93317 6.62503V13.375C2.93317 14.4 3.2915 16.1167 5.67484 16.1167H10.7332C12.9082 16.1167 13.4748 15.55 13.4748 13.375V6.62503C13.4748 4.45003 12.9082 3.88337 10.7332 3.88337H5.67484Z" fill="#292D32"/>
<path d="M17.3167 15.0916C16.9584 15.0916 16.5001 14.9749 15.9751 14.6082L13.7501 13.0499C13.5834 12.9332 13.4834 12.7416 13.4834 12.5332V7.46658C13.4834 7.25825 13.5834 7.06658 13.7501 6.94991L15.9751 5.39158C16.9667 4.69991 17.6917 4.89991 18.0334 5.07491C18.3751 5.25825 18.9584 5.73325 18.9584 6.94158V13.0499C18.9584 14.2582 18.3751 14.7416 18.0334 14.9166C17.8751 15.0082 17.6251 15.0916 17.3167 15.0916ZM14.7417 12.1999L16.7001 13.5666C17.0751 13.8249 17.3417 13.8499 17.4501 13.7916C17.5667 13.7332 17.6917 13.4999 17.6917 13.0499V6.94991C17.6917 6.49158 17.5584 6.26658 17.4501 6.20825C17.3417 6.14991 17.0751 6.17491 16.7001 6.43325L14.7417 7.79991V12.1999Z" fill="#292D32"/>
<path d="M9.5835 9.79175C8.55016 9.79175 7.7085 8.95008 7.7085 7.91675C7.7085 6.88341 8.55016 6.04175 9.5835 6.04175C10.6168 6.04175 11.4585 6.88341 11.4585 7.91675C11.4585 8.95008 10.6168 9.79175 9.5835 9.79175ZM9.5835 7.29175C9.24183 7.29175 8.9585 7.57508 8.9585 7.91675C8.9585 8.25841 9.24183 8.54175 9.5835 8.54175C9.92516 8.54175 10.2085 8.25841 10.2085 7.91675C10.2085 7.57508 9.92516 7.29175 9.5835 7.29175Z" fill="#292D32"/>
</svg>
